<mxfile host="app.diagrams.net" agent="Mozilla/5.0 (Windows NT 10.0; Win64; x64) AppleWebKit/537.36 (KHTML, like Gecko) Chrome/119.0.0.0 Safari/537.36" version="26.0.16">
  <diagram name="第 1 页" id="HnHJr4s7B0TgRkQ79Sto">
    <mxGraphModel dx="2269" dy="1326" grid="1" gridSize="10" guides="1" tooltips="1" connect="1" arrows="1" fold="1" page="1" pageScale="1" pageWidth="827" pageHeight="1169" math="0" shadow="0">
      <root>
        <mxCell id="0" />
        <mxCell id="1" parent="0" />
        <mxCell id="pjQKDKpwNunzctizq4BC-2" value="" style="shape=image;verticalLabelPosition=bottom;labelBackgroundColor=default;verticalAlign=top;aspect=fixed;imageAspect=0;image=data:image/jpeg,/9j/4AAQSkZJRgABAQAAAQABAAD/2wBDAA0JCgsKCA0LCgsODg0PEyAVExISEyccHhcgLikxMC4pLSwzOko+MzZGNywtQFdBRkxOUlNSMj5aYVpQYEpRUk//2wBDAQ4ODhMREyYVFSZPNS01T09PT09PT09PT09PT09PT09PT09PT09PT09PT09PT09PT09PT09PT09PT09PT09PT0//wAARCAIkBOwDASIAAhEBAxEB/8QAHwAAAQUBAQEBAQEAAAAAAAAAAAECAwQFBgcICQoL/8QAtRAAAgEDAwIEAwUFBAQAAAF9AQIDAAQRBRIhMUEGE1FhByJxFDKBkaEII0KxwRVS0fAkM2JyggkKFhcYGRolJicoKSo0NTY3ODk6Q0RFRkdISUpTVFVWV1hZWmNkZWZnaGlqc3R1dnd4eXqDhIWGh4iJipKTlJWWl5iZmqKjpKWmp6ipqrKztLW2t7i5usLDxMXGx8jJytLT1NXW19jZ2uHi4+Tl5ufo6erx8vP09fb3+Pn6/8QAHwEAAwEBAQEBAQEBAQAAAAAAAAECAwQFBgcICQoL/8QAtREAAgECBAQDBAcFBAQAAQJ3AAECAxEEBSExBhJBUQdhcRMiMoEIFEKRobHBCSMzUvAVYnLRChYkNOEl8RcYGRomJygpKjU2Nzg5OkNERUZHSElKU1RVVldYWVpjZGVmZ2hpanN0dXZ3eHl6goOEhYaHiImKkpOUlZaXmJmaoqOkpaanqKmqsrO0tba3uLm6wsPExcbHyMnK0tPU1dbX2Nna4uPk5ebn6Onq8vP09fb3+Pn6/9oADAMBAAIRAxEAPwD06iiigAooooAKKKKACiiigAooooAKKKKACiiigAooooAKKKKACiiigArwLxNJ5niHVo92MXsoH/fZr32vnvxIv/FUat/1/Tf+hmgDNYFPx6GmiVl71buIv3KH+LA4NUzQBbgjub5vKjTfgZPsK0rbw/cqpaVkXjp1p/h7ULS0WRbhtjPgA4roTcQSxAxurD1BqW2WtTBm0KaBEkV1fzRnjoKxZma3do43OQcMO3FdrcXoSzkBA2oMg+lcZYRfaLpjIc4+ZveiN2Ju2xr6ZPMbdmdTGOzdj+FKY4Q+4RqWP8RGTSNJtGB0HSoGlOaa0HKbluWGkbPWmMSR1qBpSegqNpGNMixZ3+9Jv96rDJ704D3oAlfy5f8AWKHx0zVaSwiflGKH0PIqSnqaBGbNayRdVyPVa6GA+XZLt7jAqmCD/F+FTCXKCL0PFZ1NjWm9S4rfu/wxQo4pyopiz/tYpypyPrXMdKG9Ac01UBkHrTpD8xJ6Z4oiByT61JSJUXBX0FPXrzTehK/Sn5+bJ7UmNlmw+bUbbHaRf516tXlmmr/p8B/6ar/OvU66MPszlrbi0UlLXQYhRRRQAUUUUAFFFFABRRRQAUUUUAFFFFABRRRQAUUUUAFFFFABRRRQAUUUUAFFFFABRRRQAUUUUAFFFFABRRRQAUUUUAFJS0lAC0UUUAFFFFABRSUUALRSUUALRSUUALRSUUAFeN+Kr7+0PEV3KvzIreWn0Xj+ea6/x5r8tmv9l242vMmXf/Z9v1rztjj2NRIuJHn5qkY/LUePmqQjipKG5rT0LSZda1FLSH5FHzSN/dXv+NZf8Ver+CdJTT9GindMXNwu92PXHYflQJm3YWUNhaR2tsgWONQB7+596tUlLV2MxaKKKoBKy/El3NYaBeXdsQJYYi6kjOCK1KxfGP8AyKepf9cGpx3Gcpo/xNt5NsesW5ib/npDyv4jrXb6bqljqsAnsLmKZD/dbkfUdq8b8I2VpdTSyanEstjuSCU8gxl87WB7YIx+NdDqPw/1PTJftnh28eTb8wQttcfQ9DWkoxewrnqNFeU6f8QdY0qc2uuWpm28EMvluv8AjXb6P4t0fVwqw3Ijmb/llL8rf4Go5GgN+lpop1SAUUUUxiUjNtUt7Zpa5Px1ri2FgbGBv9KuFxweUTufx6UgOB1vVrzWr8yXUnyKx8tAeEFVI9yfxdKZCMuBVhl6nrUXKHrO/pmnrebGyM59VPSqjb/4SRSKSPvYYn1pDNyHxLfQ/dvpl+vP860rfxvfDCu8Ev8AvLiuPcKf4WB9Qai2D1b8RQI9KtvHUZH7+zP1jf8AoavR+NNKf7/nx+5jJ/lXk/ltn5ZP++TTl+1rkxyE/XmgVj2e21/SbrAiv4dx/hZtp/I1oxyRyDMbq30Oa8IF5fR53Ro/sVxUsWsyxEEQyo3fypCKdwse60V47beM7uDAW8uk9pBuFbdn4+uDt8w28vrkFT/hTuKx6PRXIW/ji2f/AF1pIOeqMGFaMXi/RnYLJcNCT/z0QgfnRcVjeoqlZ6tYXzMtpdRSsvVVbkfhVbV9ch0iRTeQXCwMOJ0TcoPoccimBrUVm2OuaXff8et9C59N2D+RrQVgRmgQ+ikzRmmMKKKKACiiigBaKKKBBRRRQMKKKKQBSUjuqLl2AHvVC51nTrbPm3kQx2DZP6VLkkBoUVzcvjCxztt4LiZu2Fxmoxq2v3v/AB5aWsK/3pT/APqqfaIdjqKiluIoVLTSIijuzAVzq6Rr11g3ureUM8rEP/1VZg8KaeuGummum9ZXJH5Uc8uiCw+fxNpMJwtz5rekQLfqOKYNbvrnAsdIuGB6NKdgNatvp9pbKBBbxIB6KKs00pPcDC8nxFc/6y5tbRfSNS5/WpU0aTb+91S8d+7bgK16KfIgHUUUVYgooooAKKKKACiiigAooooAKKKKACiiigAooooAKSlrC1fxJY6cDGG8+46CND0Pue1JySGk3sbbuqLuYgAdycVzOseLILcNHYjzZBxv/hB/rXM6trV3qbkTSMkPaNOF/wDr1l/xfTmuaVa+xtCl3O68JXk99Ldy3EryZ24LdB9B2rgNY0uKTxJqErKzZupWxnjO413PgXiO6GMcr/WuX1WZf7Yvv+vmQH/vs1pGT5SJpcxy+qwSkecRnHH4dqxvvfd712Op2kj6NPOv3E6kdjXHqreYqr1JwK0RDE2Ox2YyewFG6aBsBnQ+xIrdstHngnWeQqfQCr91YJPEwmAGBww7U7jscy2oXTQtC8u5GGDmr2lx+XaNIfvOf0rIYbXIHIB61tRDFgi/7INNEsHfNRlhURkMfqV/UU9NjfMrA0AOJ9KaSacR6VGXweaBjvmPtTgPerdppl7dDdBbO+eh6CtGLwpqsv3hFH/vPWTrQW7K5WYjuB9ajUyv1batdMvgu9/57Qg/U0jeDdQ/hkhf/gRFT9Zp9xcjOeX5fens20Bx25rWm8L6xF8wtt4H9xgazLyzu7df38Ekf+8pqlUhLqCTRdguQ6qVPB61a3jbxXOadcFZSh+63SttGBGKwqRszppu6HMfXp2qWNgOO/aoOrjPQVMgwAx9azNESMTnFOBHT3phOFz3pYvmwTSGzRseL62/66L/ADrpPiFdXlhptreWEzxTQSl8joQByCO4rl7Nv9Otv+uq/wA66rx66iys43GRI7D/AMdroobM5q3xFLRviHZyssGrBYJDjEqcoc+o6iu2hmjniWWF1kjYZDKcg185ShYriWM8qGxn6VqaL4j1Pw/MTZzkwnrC3KN+HY+4roTMT32iuU8N+ONN1pFjmYWt30Mbnhj7GurpiCiiigAooooAKKKKACiiigAooooAKKKKACiiigAooooAKKKKACiiigAooooAKKKKACiiigAooooAKKKKACiiigApKWkoAWikooAWikooAKKKKQBRRRQAUUUUwCiiigDi/G3h+W7B1KzLtKi4kTOcqPT/AArzp+Tg9a9v1Eypp9w0C7pfLbYvqcV4ix+bJ+9nnNRIuJH3p/amH71P7dqkofbRCW5iRujuqn6E17lCixRpGowqqABXhScPyuRnkZ6ivadEvodQ0yCe3I2bQCufukcEVUSZGhRRRVkC0UlLQAlYvjH/AJFPUv8Arg1bVYvjH/kU9S/64NTW4ziPhjZR32kazbTpmKbZG3Hsf5da7fw1dyGKbTbwn7XYt5bZ6un8LfiK5n4RJjSL1/704H5KP8a6DXA2nX1vrcaFkiHlXSr1MZPDf8BPP0zTlvYRo6po+natEY9QtI5gRgFh8w+h6iuB1r4aPFmfQ5y2OfJkPP4N/jXpSOssayIQVYZBHcU+jma2Cx4vZeJPEnhqY212ZcD/AJY3ILD8D/ga7nSPHdndRJ/aEL2pPHmj54s/7w6fjXR3+m2WoQmG9to5427OucfQ9q4zUvh8bZmufDl40EnUwSNlG9s/4g1XPGW6C53VvdQXUQltpklQ9GRsipa8ZS7vNCvdt4lzo9w3/LSAbon+qHj8q6iw8b3cEaNqUCXdt0N1ZnOPdl6j9KHB9Aud/XnPxI0t47yHVFJKSAROMfdI6fnzXZaVrul6sgawu45T/dzhh+B5riviDqrz3y6YgAigwzn+8xH8gKyaaGjkYPv81MT8vFQoRninbsDms2WIzN+VMDDIzUoYHrSEIefWgBQB13DFBUUBcdhQR7mgBNv+cU5V/wA5pAG7Nmlw3oKAHYpSikcgH8KZ0/hpQ+OxoAie3jb+GoTYxH2q2XHvSBl9KYWKf2Vl/wBWWHuGpyPdx/duW+jc1Z27j2NDxp/dFArGr4P0+81nUtjSmCOEb2kTIb2xWp4/1S9i1AafHPIluYV3LgYc/XvXQeBdL+xaS11KMPcndj0UdP8AGuf8d3t8ZTZ39lBszuguVByR6f4iqQupxpbnPf1qzaapf2T/AOi3k8XOflkOPy6VUoqblaHV2fj3VrfAuRFcqO7Ltb8x/hW7Z/ESyfAu7SWL3QhhXm1FO4cqPZ7LxLo97gQ30QY/wudp/WtWORJBmN1YezZrwOrFve3VsQbe5mix/wA83K07k8h7vRXktn421u2VVe4WdR/z1QEn8RW/Z/EB2UfarEH1Mbf0NO4uVneUVzdv4z0mXiUzQn/bX/CtGDXtKn4jvoc+7Y/nRcVmadFRxyxyjMbq49jmn0wCorhDNC8ayNGzKQHXqvvU1NpAeZQOt1rM2l69qstvcxvhdxJST6E8Cuvs/CukwYZo2nPUF2yP0rmPijom+OPV7deV+SXHp2Nc94Z8c3+jBYLom7s+mxj8yD/ZP9DWfIij1+C0trdcQQRxg/3VAqxWZo2uadrduJrC4Eg7qeGX6itKrSSELRRS0wEopaKYhKKKKBi0UUUCCiiigAooooAKKKKACiiigAooooAKKKgvby2sbdp7uZYol6sx4oAnrM1jX9O0WLffThWP3YxyzfQVw/iX4hStG8GiIYh0Mzj5j9B2+prhZJpru6ElxK8sjsCzMck0mwO91XxZeagpS3zbQHsD8xHuawUJJJPPqaaOB64FSMNqBR95+vtXJUk2dcIpEi8oWP4U6FA5J9BzTQMLj07VLENin35rI0Ou8E/duv8AgP8AWuN1Dc2sah7Xs4/8iNXY+B+Vuv8AgP8AWuLvLjbrOqrxxfz/APoZrrh8Bxz+Min3GxmjXO0qcjPFc7ZQLLcQHpmQA/zrqZJVMLHsVNZGh2wa3ZzziTIP0qxHQgYQHiszXbkx6a+wYLfLkdqna/jiO2RcehPeqd9qEE1s6oOowQRQhs5POPxrcJ2QhR2XFYyLmVV/2sVsMODVGZU8xM4k4NRmHDbo2x/KnO0ZOHcUwDYcxyqR6Glco0dI02+1KfyYgAg5eQ9FFdvp2i2FkFZY/Om7ySc8+wp2nWa6dpkFsnBZA8h9SeauIRxivIxGJlKVlsdFOGly2h+Xrinq2fWq4YBc5/OjzZGHyfpXJaTL5S3T15/hrNjef/npuPbPGanT7SnzO4X6npTjGVynE1Qn7kMFCn65NQXQV4wjICMc5FVpLyddrRLvAPJY8UPdYAaRdu78q0qycVZEqBl33hrSrr5/soik7PFx+lc1rGnLpEoUyiXfyuOoHuK7wOpHH51werzjUNVlmU5jU7V+g4qsNUnJ6vQUvd2MmW8ZfuxnnuabA9xezKrNhO4HFa/2eORfmX86zYwVv3W0Ulc4LYz+VehGSaI1bL+AGx+VWY0AFRRQsxUEN+XWp3jlVOI3/wC+TWdzZXH2X/IRt/8Arqv863Piu+yw0xs4xcHn/gNYNk3+n2vvMv8AMVt/F1c6PYt6XB/9BrpoLRnPV+I82vrVxcsyqXDnIwKjvYiu3cvbH0rodO23NlFJ7YP1FZGs28kc5dvuseK2TMzLV2Rgyk8V1+geNta0UxRXavc2hxhZM5A/2WrkoztlU9s816BBLaXsAkhw8eAMEdMdiKbdgtc73RfEmm60n+iTjzQMtE/Dr+Hf8K2a8Zm0kKrX1kzw3ETjaUOK19E+IFzYzfZNfQyIOFmUfMPYjvQpXBx7Hp1LVOx1C11G3W4s50ljPdT/AD9KuUyWrBRRRQIKKKKBhRRRQAUUUUAFFFFABRRRQAUUUUAFFFFABRRRQAUUUUAFFFFABRRRQAUUUUAFFFFABSUtJQAUUUUgCiiigAooooAKKKKADNGKTK+tG9fWgBaWmeYn95fzpPOj/wCeif8AfQouAsq742TJGRjivEL6H7PfXEOwjZKy4Yc4B4z+HNe2faYf+e0f/fQryjxoIE8RzNbjKyKHJ3ZDNjnH6VMiomAzAH/61OyMdRTWYE5o3AjGD+VSWG7muh8J65NpeqJEXLW0pCuhPAJ/iFc5g7ulSodvLbaAPZ31zSo/vahb/hIDVaTxTpEcgU3aEf3lOR+NeRGeP+9+XNRm6I6Ix+tPmZHKe6211BdwiW2lWRD0Kmpq8Ht9SvLeTfbStA3qjEV6/wCE7m5u/DtpPeSCSZ1JLDuMnH400xNGzWL4x/5FPUv+uDVtVi+MP+RT1L/rg1aR3Ec/8JQR4cuCR1uT/wCgrXbTRJNG0UihkdSrA9wa4/4WJs8K5/vzsf0Ars6c9wMLw3JLaNcaLduWktG/cknl4T90/h0/Ct6sTxHC8Ig1e2XM9mfnUdZIj95f6/hWvbzJcW8c0TBkkUMpHoaTGSUUUVIiC7tLe9gaC7gjmiYYKuuQa4zVfh7Esn2rw9cyWVyvRCxKfTPUfrXdVg6/4ittHlhgb55ZCCR2Rc8sapSa2Cx5peW0umzeX4h02WzkJ+S9tRgZ9SBwfwwaztQu5Ptm+S+W/DAHzsnJHvnnNeneNPENrp+k+VH5c890v7pWAZdp/iPbFeNufnJ+6fato1FLSQrGzBJHMMowJ9D1p7J75rCEhBByQfUVeiv5AAHG9fUdRSlRT1iUmXcfpSg5/D2piOsgyrg+3cVJ79PSudxa3KTuKD9KM80gP0oHWpGKpA7U7k96QUD6UDHg460pwfQU0ZPelx6jNAASvtTTtoNMJNIB2E/vVc0yzN/qdraKP9Y4U/Tqf0rP2s3t74rrvh1atcalPduAVgTapx3P/wBYUxM9EREiiWNFwirgD2FeW+Ory9/tmawmneS3QrIikD5cj/65r0bWhd/2TcmwfZcqm6M4B5HOPxrxq/vrnULt7m+k3zEAEkAcCmyCoaTNKaQ0jRADTgajFPFIBaKKKYD1G5uac6H+GhOBk0pfI4pANAuI+jkfjSG4uB3DfUZp4J9TSMfXFMCS31C5gcNEzREf3GIrZt/GOsQY/wBMkcej4b+dYDUzd/nNFxHbW/xA1FMedbQy+xBU/pmtW0+IFo423dpLG3qjBh/Q/pXmvmkev50qyZOaolo9TufEnh/VbGa0uJ2SOZCh3xkYyK8eu4Rb3UkSyLIqkhZF6MOxFaQn/ukD8agvf30fmfxJ+opBYp2V9c6ddLc2czwzL0ZeD+PtXpvhf4iW95sttaAt584E38DfX0NeXyR5qDlTg9KpCPpRWV1DIwZSMgg8GnV4b4b8Y6loTrGHNxaDrC56D/ZPavWdA8S6dr0Aa0mAlH3oXOHX8KYG1RSZozSELSUVnz63plvK0Ut5GrrwRnpRcZo0UUUxBRRRQAUUUUAFFFFABRRRQAUx3EalnYKo6k9BWHrninT9JUpu8+47Roen1PavM/EfinUdXPlyS+XETxFHwB9fU0Adtrvj+ytGa30vF1OODJ/yzU/1/CuD1PU77VJGmvrh5M84PAX6DoKyYF/iJwB0HrVmVxsA70AUpfmCj1NTWSb7xf8AZ5qvKcMKv6YvzPIe/FZzdkVBXkagbrjuKsIfuttzx3qKJeMetWI0eRsBc1xyZ2RFj++D/k1MVkk3FUYqOpA4FW7SwXzQ0/J/ujpWxGAAEUADGMDpWTqJFcjZP4G+7df8B/rWFD4Zh1LUtXuYdSTeLybzIynKHea6DwdGYbi/jbjay49xzXAX95c6X4r1K/tZMFLyUOueGG88Gu6L/dnJJe+at9pSaahElwr7jtVQmOtT6ZoItrBIpZzv5J2jpmpNLSTX9VOoyK32S3UMgfoXP+FbcvyvXNOpJI2jBM5m88M28zgme4IB9qT/AIRe028tN9SRXQt81RSHAxyPpWHtp9zX2UTnf+EV05X3ZuflOfvD/CpP7Dsv7s3P+1/9atkhvvZ/MVGzM3o2ffFNVp9w9lDsZa+FtKkOHEp9hJWvp3gnQpXUPbyH/toaIFZZMiMj9a3rSURXcCH0Jb6Af4mumnUctGY1IJbFPWbU28i7BhQNv4DpWX9p8r7gEjgZCZxmuk1u4tPK3yTRhcY5YVyt9a8C8tCJ4cjJU5wK5KlG1XXYIS0LLF5UV5PkzztHamO7rnbJn2IyKgivFluliyMBcsK0miRkGCq+2a09nHoXcggkMp2IvzHpnkZont5N3zOR6gHFO+zxDo5U9sGrRYhAJgG44I/rTjTQXGzYntkWNwhUfd6ZqCFZFRxL9zvnGAKhuZlki2QrmbOMeg9RWc0jbSWV3VeoFYVIajTJL69vI7aUWh3rgqAev1/KuZtJSq5K/XNbsTXM0UreTsVTwSc1ztxKlu83zZy3H9f1relBWaM6ncu3t6sVvhWw5HBHatXQLWNLISAfO5+YnrXLWFld6nIGETGJTktjj867C1Bt7dUAxiiraK5UVR11Lhth/eH5U3YE/iH5VH5jepoLk1hC7djeTsrkNnCsmqRybQMSrj862vibGJNJsiwyPtagj1BFUbC3la6hCqTiRS2O3NW/igMaTYHd926B6deK9OlFpanDUd2cjCkdsAsQ2oOcdqq+IoGOmR3C8p5uM++OlXso4+XFU9YLjTDHzsDhsds9KtMg5j5SpOee1WdO1GewuRIpyjfeXsRU+n6WLq5kidiuEDAj3rRm0tTZi3K4kQfK+OtWBrafqcdzCTEQyn7ynqK5l4X1O9uJi21C/WqKPPZTsFYo4ypArXth5Fqi9yMn6mpS1BM1dKvp9JINnOwYDBJ712+jeNracLDqYEMh480fcP19K81aZh70qvkZNXYTbe57tG6yIHRgykZBB4NOrx3RvEGoaO4+zzFoifmic5U/4fhXoOh+LbDVAIpGFvcf882PB+hoEdFRRRQAUUUUAFFFFABRRRQAUUUUAFFFFABRRRQAUUUUAFFFFABRRRQAUUUUAFFFFABRRRQAV5rrPjTVbTWLu1hMAjimdFyuSQDjmvSq8M8S/wDIy6n/ANfUn/oRpMaNr/hO9cOR50A9/LFRN4210/8AL+o+ka/4Vy1GKgqx0n/CY67z/wATH/x1f8KgfxZrTcHVJvwOKwsLRhaVwsbX/CUaz/0Fbn/vqo/+El1bnOqXRz/tGsn5fSkouFjSOvak3XUboj/fNN/tq+/5/rr/AL+Gs6louMutqdy33rq4Y+8p/wAaab+bkmSUk9cuaq0v5UCsTfbZf70n/fZqP7U3ofzNMIpMUASfaHP8I/E0ee/9xB+FNxRigBd8rfxYo3SDq5pyj2pGXNIY0M3dyaeGHpmmiP3p4X2oAaOvSl5p+KOPSmAyvXPAF9FdeGYIUOJLb9269/UH8RXkpFbfhPWG0jWYXdj9nkOyUdgD3/CmhM9lrG8Xc+FdSH/TBv5VrowZQVIKkZB9ayfFv/Iq6l/17v8AyrSL1IMr4Zj/AIpCE+sjn9a62uX+HMfl+D7Qepc/+PGuppy3AaQCMEcVhaQTpuozaMx/dYM1pn+4Tyg/3SfyxW9WTrtq0tvHeW6brq0bzYsdTj7y/iMikgNaioLK6hvrSK6tmDxSqGUip6QEN1cR2ttJcSsAkaFmP0rxbVdQmv7+a9mP7yVsgHsOwH0Fdv8AEXVvKtY9MjbBl/eS4P8ACOgP1P8AKvMZZS53fdHQCgpBcTPJ80hZiAFXnoOwFUzSyNlqaaBWFRcmpfLHVeD3oiXau/uakGcc0KbWw+UjEjoe4P8Aeq1BeHO2Tn/aqu5GMCoivHy8GuiFWM1aaJatsbSFXGVfd9DRz/8AXrIjlkjPBIPr2q5Ddh/vjB9R0qZ0E9YO41LuXg3vSg1GpB9DS5xXLytFko96dj0qIMaUt9aYxzf5FNI9s5/CkDdx+tL97p34INAELD5tvOB1xXrHgq1S28NWxQLmbLsR3JNeYFAFPr613/w8u5ZtMuLeQkiCQbc9ge36U0RJnTX9wlrZTzySJEI1J3P90emfxrxK7kE91LKQgZnLHYML17e1es+MbtrXw5cusSSArsdXOPlPH9a8gP0xQwiNNNandqYetIsBTxTBThQAtSKuajqRW2igCUhdtIAoGKi35NIW5oAnxmkZDTFkHrTvMpAJ5dNMY9KlRhSs1AFYxj3oEfoalLfSnLz6VQiLY3rTGU+lXAoppQUCMqRdjlew6fSm7UbqKvX8LFdy/wAI5wOgrPWkBFJEUOV5FLbzz206T28jxyIchlOCKlzToyM9KdxHoHhb4jD5LXXuD0FwB1/3h/WvRI7u2lthcxzxtCRneGGMfWvnySFJOcYPrViw1a804iB3eW0LAtCXIVqG30FY9glv7vWma20lmhtgcPeevsnr9a07PSLOzt1hjhQ45LOoLMfUn1rI8MeKtK1eBILci2mUAeQ3H5etdLSs+oDqKKK0EFFFFABRRRQAUVXvb22sLdri8njhiXqznAFcFr3xAzmDRBjPHnuOfwH9TQB2er65YaPFvvZgpIyqDlm+grz3WfGt/qm+KyBtLY8fKfnYe57fhXKXV5JcTtNczPLK5ySxyTVdizf7IPbNAFqS5VCQpLuepqsIzM+9uPpSqoUcdakzhemDQA1flyNoPoaSY4b6U5agnbJC+tJuwIjf5pK17SJlREVSWPYVLo3hu7upFmnXyIeuWHLfQV2tjYW1iB5SZb++3U1x1qyWiOqjTe7Muw0abh7o7F/ujqa1kgSJdkKAD9atiJ3PPC1MqpEM4/GuGU2zqUUinFbnrJ8opzskY+RefWpJXz06VGpX+L5j6VBRq+HFGbhz947QfwzXlPiBv+Kg1ZPW8l/9DNes6AwJmwcnj8K8l19P+Kk1P/r8l/8AQzXp0v4aOCovfZ03gjUdtq1g54J3KPfvW9MGNeeaPdNZXySA4wQa9B8/zI1dOVYZFY1UbUyMBu2ajkVz1zTnkYdM1CZXPXNcrTNxjB8U2JGEo3Lj3zStKhONw+maaQd56heKLMZfgO6ZU9TTdQ3XF1cW6y+Wfs4UMDyCxz/Sm6WubtfvNtBNUI7nztVvp/WXYPoBit6LtqY1Fd2ONvLQxyy2szlnRsBtxIq/ol22lOQl2+D/AAn7v5UavbRvfyyYIYtmqS/L6D3NdjtJHM00zro7zTb45uYfJk4/eR960FgDJ/odwjk/3utcNDNcCVQmW9hWwodQGAI+nauKpBw1TNIu5t/ZL5WJkBOfQVHPPcw5jCOQR/dNUlvLiNflmk6dzTv7YvUP+tDcdxUc8iy/AkMcEU8sL7/4sZz+VV7i4eVG+zW8u0k4G3mqsmu3o/jUfQUyLVdSu32xSH39qUVOT2IcepXnsdavPkjh+yxfxb3wT+FMg0LSrIq9/cm6m7Rp0zWjtvG+9HJO3qxOPyqvNpeqy/6q3kC/7CYrrjSnbexm5IiudZdh5VtEsEK9EWliuXkQMKp3tlcWMojuo2R2XdhutTWB+Qj0NY1IKJ00yz5kp6mnLMV6mn5AWqjv8x5xUQ0dy5ao6HSNa8rZBsXe8ijJHXn+davjjTo9UsbS3kZ0Pm5Vl7HHcdxXJ6b819b9/wB4vP412viW5WCTTlb7skxX6HbxXdCbcWcc1aSOC1TRL/SZTLJGWgPKyLyv/wBaqGqyK+ky+wB/Wut8R63NcCPRdPXzJZflbHNVdS8LommNavLtnYDLYyM9fyp+0S3Fys5zRocSlv78ac/Qc1rui5qG6tZbBBwBjGD2P41HFdQ3Cfew46jNaRknsJq25ymrsk+qvs9QpPqavXMmFQdv5VnSQeXqxj3bvnzkfnVy6PygetaIzQm7ijce1QI2Dsb/AIDUuMdaYC+aw61IkoPfFQHmlVfWkB1+g+M73TdsVxm5thwAx+ZR7H/GvQ9K13T9WQGznBfGTG3Dj8K8QG5ehqxFM6OrRSPFIvKsDgqfUGgD3qivMNF+IdzZutvry+dCeFuUHzD/AHh3/CvQ9P1G01O3FxZXEc0R/iQ5x7H0NAFyiiigAooooAKKKKACiiigAooooAKKKKACiiigAooooAKKKKACiiigAooooAK8M8S/8jLqX/X1J/6Ea9zrw3xL/wAjLqX/AF9Sf+hGpkNGXijFSYpMVBYzFGKdijFIBuKMU7FOjRpH8uNTIx6KoyT+AoAjxRj2qR4niYrKjRuP4XBBH4GiNNz7dwGe54AoAZinBR6U+VPLbblW91OQaFoAYRSAVI1MoAXH0pMc0E03dQBLjimDrSjJFCrmgYZFODCmlRShRQAtFLijFACGlWkNKKYj1/wXetfeG7dpGJkizG34Hj9MVP4t/wCRV1P/AK93/lWB8NLsNY3VoT8yOJPwIx/Sug8W/wDIq6n/ANe7/wAquJDKngNdvhDT/dCf1NdHWB4K/wCRQ0z/AK4j+db9U9xCUUtFAGHZE6XrMli2BbXeZoMcBX/jT+RH41syOqRl3YKoGST2qhrNi19ZFIH8u5jO+B/7rjp+Hb8a4rxf4v8AN0dNPtPkup1xdAdYexX6k5/CiwHHeI9TbVdYurnOUkf5cnsOB+grKdsU8gL0pnfmobLSIMEt900oQk/dNT5qSLBcUrhYdHbsYge/pSY5wauK6njiql1Mgb5fv96q4XGv5S/fOPYVVdsudvApHbdyeTTO1MkkzlMZpvJPFCninIP3mKqM3HYQ+K4kiO0HHqD0NaUN3HJw2AffpWbMm7nvUCkg4Nbc6mrSGdFn2+hpDntisiC8lhOM5X0PStGG8hk6/KaylSt8OpSZNj1qRPw/CmfT9acoyu31NYtDCZtqD1PUelem+B9O+w6EsrNl7o+YfYdhXn2m6Td6xcFLVRxjdlgML617Bbwpb20cCDCxqFH4U0TI87+Jjg39qFnBCxkNGG+6c9cVxVdB46tWt/FN03RZwsq/lg/qDXO0McUKaYRzS0YqShaKKKAHqMtT5AMYpIh3pW5qgGKvNO2ikXGadnNIBmzmjZj1qUfWlAB5zQBEFYdKRi47VOOKTvSAr7iOopyuKl25o8te4pgKrj1/On7wvvUflZrY8L6E+saj5ZJFtHhpWHp6fU0xHSeCtD87Tru6vk/d3kflRqRyU7n8TXnGq2EmlatcWNwCGic7T/eXsfyr6AjRY41RAAq4AHtXn3xS0QyW0Os26fNF+7mwP4T0P4Hj8adibnmpBX60zcQ1SKwdfcU1gMe9Ah6S54PWpPvDawyKqg7WyasBtygipZQ1Q8EgkicqRyCDgiu30bxzrCWIjl8uZkO3e/U8DrXF/WtPSlP2Z9uMbz/IUXEe70UUVoSFFFYWueJ9P0hdkjebcHpFGefxPagDcZgoy3AFcZr/AI8tLLfb6Ygvbgcbwf3an69/w/OuN17xPqOsOUnl8i27QxnAP19a52SbI2xjA9aAL2q6xqGrXG+/nMrA5C/wp9BVFV/vcmmx1egs5Jl+6eRwB1NJtICkdqn0pjTY+6PxrqNG8D398qzag4tIewYZcj6dvxrs9N8KaJp6ri0E7j+OY5z+HSuepioQLUGzzC1heSLcUYknjApLuCVcbleMd8givaYxFEMRwxoB0CqBSypFKMSwowPUFc1yPMUuhfsTyLTNHur4DyUIQf8ALRhx/wDXrqdM8O2dniRkE0v99xnH0Haupl06Ex5gUIfQDis5Ri4aNlPyjvWbxbq7G9OlFD40Yjj86nSMdTyR3phYJ+FMa7X7vf0rNnQkTs4UVVlnHQc0x3Z++BURAHTmkA4lm5J4prMFQ8496QyAf54quimb97L93PyD+tVCHMJux0PhZt4uMDGMfj1rzDX/APkY9S/6+5f/AEM16d4TZWFyF9V5/OvOdfi/4n2ot/09yH/x416MdII4pfGzKuo2WETR9q7DwzqSXWjBWOXhO0/TtXNQASwvC/fpUGh3JtNQeBmKpJxwaJx5oji+WRu+IvEH2PEFp/riMlj/AA1ySahqMsvF3Nvbj7+M1o65FDNcxYO3IwGxkfjVVdKMEiSNODg54FVTjGMSZylJlnRby5eZ0nZmQLnPcGurs3kNuNwPtk1z1wRBbgRLjcck9zU9ncSLKDG+eemeDWFeK6G9GWh2WmNshnmPG1f5DNYGmSbrVpD1kdm/M1szu1t4buDt+Z0PP14FZ9nB5GnW5mjcbwAo55rKMXy6FXXNqZl6m+Qv19aqBEJ5ArfmiyxBBwe3FZdxaGJicHB6CrjUaVmZ1IX1Q21URSCRPvfTtVy2m8qVvMQtE55HcVWiBA5FW4e3T6VlNuW4oqxoS29vLhlYHI9eaqyWMK/ecAfWmXsK7FPO888HpWRPCx6lj+NZcpVx99dW0GVtsSP69QKi0nU7rT7hpreNZT3VhmqkkBwcLii1aW3l3DuOa66VkRK7Olbx9fj5RZRJ68YqCbxvqEqbVUDPoazJLgTjE0asezY5qsUjQ7iNo/nXRzGaiaZmm1eVZpyflXGTUyIkPyhfx9aLHZHbqGbbu5I9KtSvG6cMN3Y4rhqu7OunGyIQN7Kv95gOlTXenSw/M6fuz0dRkH6+hpifJtb05yvWtuK+M0EaAkDuf731rSlFNWJqO2pj6ZasLuE/Mv7xee3Wtv4lSGGy02RTgi56+nFa9vY2yxRyKFR2IzWH8VP+QRZ+0x/9BrphFxg0znlJSaaJfBmmxQA6hM/nXE+SGP8ACPQVraqu5zxXPeC7/wA3TTETzEf0Nbty2/vWcn7tjWMdbma0URVkdMqRg56Vzd/4bQOZbKTymJ+6emfY9q6Y+nQ+tV5SwHynPt2Ncqm4vQ1cFLc81ubK4ttTC3KMGz1Pf6GnXIyg/nXe3FqlyhLIkg7qR0rntS0CcxmTTju7mM9R9K7aeIT0ZzzotbHM/wCsG3o69Pep7dJpxgxuWHUhSa2PCulJqGquL+LbHax+ZIpyN3YCu6inONsQWOMdFUYAqa+KVN2RmqbZ5eyyIdroV/3him49j+des7Y5htljSTPZlBrJv/C2m3pLQKbeU94+h/D/AArKGPi/iQ3SaPPhwPWnqfatTVfDuoablynnQ/8APSPnH1HasXdJ/DXdTqRmrozcWiwwWVNkgyD+lGi3d7o+rK1pcvE3cKeGHuO9RJJKeDGv51YGDJExGCp7VTBas9Q0jxjb3Hlw6gBBM3G8H5D/AIV1SOrqGUgg8givFfv3Kr/dGa1dH12+0xh5MpMZ6xPyP/rViqttGaunfY9XorD0fxLZakBGT5M/Ty3PX6HvW5WsZJmTTW4UUUVQgooooAKKKKACiiigAooooAKKKKACiiigAooooAKKKKACvEPEKO/ibUgikn7VJ0Gf4jXt9eIeJHA8R6lgc/aZP/QjUyGjNIIOD1pMe9IXPpSbm9KzLL23Tlttv+kvcEHkbVQH+dRSfZ/LCxwlHGMuZMg/hiq2GPc0hxjBNAF2yv5dP3/ZzEHfGWZAzD6Z6U6fV7yeVJZbqUvGCFI42g9cYrPwKOKAJJJ3klZ3LOx6sx5NNMh7HH0pvFIKAHinCminCgQHJ70oX1pY4pXPypVpbUAfvX20m0iHUSKhC0qxFvugmrgFrF/tmka82/6qMCp5n2I9pJ7IbHZSN975RUjWkMa5d/xzVaS6nb5i+APSs55HkJZm/WhRnIXLN9TRmhMZz1X1qP6VDa3bxfK3zp71c2RzLuhPPcVWq0ZcZNaSIgaXNJjBxS4pmiGmlFIetKtMZveEL5rDX7d85SQ+U4z2b/6+K9I8WHPhXUiO9s/8q8it45pZVSBHaTPAQEmvUNVkml8A3b3SMk/2NhIGGDuAwauBLJPArb/B+n8YwhH6muiHSuY+Hsm/wfZD03D9TXT1T3JCiiqGtapb6Pp0l5ckbUHC92PoKAMzxf4ij0LTiYir3kuVhQ84P94j0FeNSyvJO808jO8pyzHua0dU1G41fUZb66OXc/KpPCL2ArOkGc8UnJLQpIa1Rmnjmmnis9mUNBANSxqCcg4pBtIy2KQ8jg4piLNuvG41RuRidvrV6M4iX2qJkEsxb0qU9RW0KO0+hpD71olVXtkVG6xswO3OeOKu4rFMDjjtUyISSU5IGaV4CnKgkdKkgR0JPTik2CRC0j4O7tUWd2KtTxbxuX7w6iqhBFVF3AM5py89OtMz2py8VoptbAWI7uWLhjke9adtfQuOu0+/+NYxb1xTc/3c1d1L4kLma2OntlvYkbUIXaOFX2K4baWPt61csPFuq6Y4EUxlTPKS/MD/AFFc9p2tXVigRfKmgzzFModD+B6fhTpruC4kLRwJCD/AGJAPtnmodF7xGpX3NnxJry67dw3AhMLLFsZSc85J4PpWNUdMZ8e1Y2fUtMlpa04m0nU44oo0On3P3NxctC/uSclTVO4tJ7R/LmjK8ZB7MOxB9KCiGiiikBNGRtpCeaVOBinFaYhoFHSnEY70mKAFGKMgUlB57UAOyDSZpmaU+1IB2aeDmogSe1PUGgCeGGWaZYYkLO5CqB3J6V634d0mPRtKitlUeZjdIw/iY9a4rwLpovNVN06nZagMPdj0/Lk/lXpWKpESCq1/Zw6hZS2lyu6KVcMKs0tUSeMeKPBN5ortc2Ya5sz3A+ZB7j+tcuCCP88V9GMA2QwyPSuH8VeAoL8veaQEt7nq0fRH/wADQM8pdc02Jyre1Wry0uLG5a2vIWhlXqrDFVXUA5WkMsBs1q6X/wAezf7/APQViqcYrZ0rm2b/AH/6ClYZ7vVW8vbayTfcSBeOB3P0Fc9qPihvtD21hH9wlWkb1HoKwppZJ5DJM5dj1LHNVcmxe1vxLcTxOluzW0Xcj75/Ht+FcNcEGZ3JJzzk1evpHaYq3Cg8CsyZ/wB4VAyf5UXHYo3Bbf656Z7Cq9WbgEKSaueH9CudcvPLj/dwIf3shHCj296mc1FXYJXIdH0q71e7EFpESoxvfso9zXqWk6LaaYi7VEs399h0+gqbTrC20y0FrZRhIx1Pdj6k1bGc14+Ixbm7R2N4U7bjmbHLfmaXd0C857+lNaRBwTk+lRyzOkTSJGCqDJ561yWcjXlLHyj1z60VnWuqRTrypT/eGKvRSo4OD0rGcWgsJe3AtLOSc/wLn6ntXJR6pNM4nm5dRgkDqKt+Mb/ZHFYoRmT529gOlYMTjy1TP1rsw9NqF2KLszoFuTcx7vu0KoU5AzWRb3PkP1ypPIq5cX4RPkxz0rblZvF6FqSQIMnAqmbwM7AuMY4ArLmuJpxndkfWnWMLM+8jIB4HqapUxORrSP8Aulx1Y457CoLq5CKI0PTjIqvdTsp+Y8g9etQGRmj8xl74X1J/wrojCyMXK7Ot8Ef8vf8AwH+tcX4gX/id33vcSH/x412HgJtwvM9Rt/rXMa9GG1i+f0mk/wDQjW9rQRgn77MHJjfIrOv0aO5WdPXNaUg5+aq9wAYSMZIqYysy2rjboi4tgw6r8wrQj/fWSN3wKsaTpJaFDcLx1CnvW0NMgcYA8tSMYWs5VknYpUmzlpnaZViVS7dAB3ro9G0h0jjJ/wBcRwuOlXLXToLcjyowHJxvbrXTafFbQROVfzJMct/hUOamU48hWUIpt4pVVlz0IyOB/jSajqkdihXb5lw3+rhHU+59BVS9uPK1C2O4BQCST2zWeiiSd7k5MkhyS5yfarVRQgTyuTJGeZz5kwUu3UAYA9hUMgVlIYZzVl1+WoCK43Jt3OhLSxSkheP5mTzV9QcMP6GltXtmmG66VMfwSjaf8P1q3tqvPBHKMOgb6iqU+5Lp32I7l2dievupyKqZ9aJdKhb/AFe9G9UOKp/2Pen7t1cbfdj/AI1ouR9SfZssOqmq0oiT77qv1NL/AGBfN968lx7k/wCNOTw0mcySsx75NWnCPUn2bZnS3kIbbCDK/YL0qxa2ks0izXfOPuoOgrVj0qKHlAo+gqZLfqpbHpx1olWWyKjTtuV+AOnanZyBVj7KpHWj7Mo71z8yNSINwDmpobiSE5Q/UdQackCAc09Y0B4H501OwnG5sWWtBpYYDCV3soPORnNL8Svn02zH/TY/+g1l2qL9tg+7/rV/nWr8Sf8AkG2f/XU/yrupScou5x1YKMlY4zwfeG11trSQ8SggfXqK7uSTAry+5lNpqNtexnHzAn8K7TVddisrEXBXzMgbQPU1FSDb0NISS3NN2Vj81QSgp0rlLbxlHJLtuoDGh/iU5xXR295Bdxh4ZQ6noQawqUpRNlUix2803cVf69R6/Sl2rlf4fXHQ1bSOObavqeKxuWT2UDKJG2Y82I7Xxye45qrCeTVu/uPKvLW2iYfuxvIzjPYD+ZqtqgFu4kRfkl5A/mKKsG7GFyxHxVqN8YrJtrieaNmyhQH5COvuDU8chJxIxDHvWLoNK47mmeRgjI9K5/WvCtrfbprLFvcdSP4W+o7VpxSyROd3zL6jqKvW7LM3Bz6qOtFOc6ctBON0eTXtnc2FwYLuNo5B2bv9KYjfLXreq6VZ6nAtvcpx/A/8Sn2Nea67ot3pFyUmUtCc7ZAOG/8Ar169KupKzOWUbMisJPMldz/dx+NXAGrD0+5xctF2PI+tb8cgMQNKorM6IO6GPhSRk5HcVvaN4rvbH93cMbmEHgOfmUex/wAa55j1NSxr8oHfr9KhSa2KcU9z1XTdVtNSiD20oJ7oeGH1FX68ihmkgKyQyMjLyCpwRXWaR4rcEQ6ku4dA6jn8RW0KyejMJ0WtUdjRQKK6DEKKKKACiiigAooooAKKKKACiiigAooooAKKKKACvDfEv/Iyal/18yf+hGvcq8N8T/8AIyal/wBfMn/oRqZDRmZpMmmk0magodvakyaQ03BPSgB+aMmnwQNK23eq/U1oRabH/HIW/lUyaRnOqomYAW6c1PDaTyDIXA960s21t90Akeh5qtLqDtkRpge9RzPoZ+0lLZCpp6p800uPUClaa0g/1aFz61Tkd5PvsfpTVFPlb3ZSpt/Eyw15M/C4Rfam7i3ViajpQ1UkkaqmkOxS03NKzeXEX9OnuaaBaFa7k/5Zqfc1VoZixJPU9aBVoCaIcVIpZGypIPtTUGFp1J6jtctpcpL8sy4PZhTpIygyOVPcVRqaK5eFTzle6mo5exDi46oea0fD2ltrWqLZeaI9w3MW64HXHqaoRPDcLlDtYdVNWYp57O5S5tZGjnjHBHWhPuNTvuev6LoNjo8QW2hHm7cPK3LN+NR+Lcf8ItqeP+fZ/wCVcBb+PNaTCvJEfrGOafqXjW/vNLurSaG32zRMhbkEZFawsDR1Pw1/5E+39pHH611leSeEvGEmkaELJbRZdrsQxfHWuit/iLat/wAfdlLGPVGDfpVPcVjtZp47eB553CxoCzMegArxrxXr76/qGUJFpCSsKH+L/aPua0fHXi9NTRNO012+zYBlfON5/u/QVyEbblHtRLReZUUSihsUmaidzWJYyQ7G4701jxSHnrRnP4Vpa6JBRuPvVy3hjDYfkkcGoIVLDPept+V54K0mhXFXKSNGe/IpVRVJPc1BcTK7I8Z5A5+tSQyrKMHhh+tZtWY0yUgbaAi7RSH5RzSFvloTAUgYphalU5GKY421QASM5zVW6QKwIHWrKnjApWUNGdwpJiaKCru5ByaU5HUZqcwDG5TtqEna+3rWqYrAYyVDD8RTM4q9FF93PGaWezU8x9fShSQjPzzR/FSldrYpyLk1tS5nLQRLCzB8U9vmPPWp441RA2OTTNvz/WorzTloVFDkUBa0dN1e90xsxFXiPWKVdyN+H+FUguKnjYbl85PNiU/d3EdeuPQ1gaGoY9I1Vd1kw0+6I5hckxv/ALrdifesua3mtpjFcRmN17GpLuxTmbTnee32hmyvzR+xH9aS21N4oRb3ESTwH+Fx8yj/AGW6igBit9Kd5n0q61pZ3o36bORISSbabAZf91v4v0qjcQTWspiuImikHVXGCKYC7x3oDLUJOeaTdnigCx8vrSEZ6GoMkUEnqDSAlwe/8qXaSOKr+Ye9O809v5UwJQPTPFSpUCynjOK1dCtf7R1a2ttvDyDd9ByaBHpXhDT/AOz9ChLD95N+9f8AHp+mK3aaAAAAOBTqohi0UUUxBRRRQBka7oNhrlsYb2L5h9yReGQ+xryfxJ4R1DQ3LlDPbdpkHA+voa9upksaSxtHIoZGGCCOtKwz5x+79K2NI5tW+Yj5zx+Ap/iizt7LxHfWkCeXGknyL2AIB/rTNKXFs4/2z/IUho6uT5dUu09ZWP6mpwM1Ukk8zWLv2kcf+PGri0xFe6tYrg/MMEDrXPajZtaXCtu3K/Q11ZA281n32mT6o0UdvgMCcs3QVMpqKux2bMLS9Jn1q++ywEqoP7xyOEX/ABr02ys7ewtFtbRAkK9D3Y9yfeq2ladDpFiLSH5mPzSyY5dv8Ku142KxLm7LY3hTtqPqlPfN5/kwxk8ZLdqfLIzfKuf8aiRCjZfnbjv61hCn1ZsNaRlfB5buaszGRLJoY+ZJBge2fWnlIbQeZK4kfPAouZfKgz/HJz9K1UOVcw73M9tOkhsy0ThpEGdtRW2oR2wEk2Qzttxmr9lKzFg4ODkE1z1/bC6t5IwcbSdppQip6MHdGLrOoJf61NOG3Lu2r3wBTYJRtbdxjvWbDERIyehIp9/J5Nosa/ekOPwr0vZpJRRhcvRzb03DODUm/cQM9KihQpCiY6D1pcYJI/nWTRvHYtiLABPU9KkM3lfIvHrT7GPzYyx+XYpPNNSPLO8nAJ4HrWkIWV2ZTnrYhYCXqMirTWwgjBk5YdPTFaFhb+dIm2PG4hUUj9am1y2SzUW6Pv7uR2Nara5ne7LvgTlr1vdf61z+sr/xNL33nf8A9CNdH4H24u9n+z/WkulQ3kwMYJ8xu3vU1ZcsUEI802cI9nPNJthiLmtPT9CSLD3Z3PnITsK6I46AKB9KhYr/AJ7VyVKrex1Rghu2ILheKikuAjfdz+FPyNo5PNVZHBc4Un8KwRoPa69EP5VJHqMsWViACnGeKrf8BP50f8B/WrTsBFeu91cox2/I2cDPNWYmxjjNRb19P1p6P6A/lV3urE2LCln6g5qvKSmcg+1aVlGJOpA+tR30AUHJBHbFVyaXEnqZgl9j+dJvx2NI/wAnf9KQbsZzWVjQfkHrmnDHYmmKD3p2SOlIBcj1NBI/2qQl/amkt/s/nQAjMB600Phwc0pDEdqjdeOtCAuYUjPFMZQe9NhA2Dk1NGqk9aEhEOAPWlAB9ammRVHaoARntTtYES2oH22D/rqv861fiT/yDLT/AK6n+VZ1mq/a4P8Arqv861fiEu7TLb/rqf5V10PhZyV/iR5fdjzLNl7qcirP2lbzw4I5OXQYJ+h/wpjLndnvVexXa00DfdbkCt4vQmxQms5bfDOu6JsYYdCK19BM8FxIA+IOzYwCe1Oti5sfLJ+aJitTzyskETD8aqUlKLRMdGdLbSG4hyxyfbvWrpMe+8H91B+vaua0y7jbEONknXI6NXRmb7BoVzeNw7A7f5D+tedye8dnN7pz+sD+1hfXO7Z5Uv7o5xwgx/jUWi60zyDTtTnd4Z1HlSsOY39Ce4qWGPy9GZH5LplvxrnykkPybgyH7prqjFSi7nPN2Z2EE0lm6WFwMyA4+o9au3EO2P8AhI/lWRpN7Hq0S2t23l3sX+qm9R6Gt5S2PKuFX5etZf3XuVHVXIIJfk77gMmrMMtv5gaN/KbOT3BqJVEU3mW/zY+8h9KdLBGZEkxlQ24e9ZeyuUma8N/Gz+SzYfbleOtV7y2hvImgukDxuORVS8nEciswzF2PpU8VwrOEJBLcqfWues5xenQXLc8w8QaFcaJqHmDL2ztmOQfyPvVyJ8xA+pru9bW1l0i4F4gaIrjB657Y98151FILdMOrY7HGa7aNd1YK+5EY8rLu4Egd/wCdWY2XY2Dz3rPjuYXcYOW6DirkeEBGM/1q2rGsWmScAAAcVYgUm4j44DDP51WUgNz0q1ZEl1bPUipjuNvQ9WT7o+lOpq/dFOr0UeeFFFFMAooooAKKKKACiiigAooooAKKKKACiiigArw/xMufEepfNz9pk4/4Ea9wrw3xLIV8S6l8gI+1Sdf941Mhoy/Lb0oEZqZGjfuVb35p5XbznioNCDyx3pQoHSns6DpzURfPSkIcZWicOOR0YeoqeSNGi822d1Q9QD0NU3OVNPs7jySUYZRuopSRzzWtxC0oPUOPyNIJPUbf1qS4h8o7l+aN/umoKatYuK0JUIbowPtmnYx2NRRL5jqvAycZY4Ap8o8lmVZc7TjIOQfpQUBNN3UofP3gre44NKpi/wBofUZpXDm7gm4nA71FeygkRqchf1NWtu2EmLDu3C4PIFZ8isv3lIPuKqOpPNdkYqSMZNMHNTRDFWWiSlopKRQVHM3G0U8tgE1XJ3GhAKnB4rQhuxsCT/MP73cVRjXLfSpcelJ2ZLiW5Y/mWRPmTrkUs65hk/3TVWOV4jlWwO47GrsNxbXMUkcxMT7CE2gEFu2falHRk3ZUsP8Aj1P+9T7rzIYk8zjzPmUZ5x64pbaNrSyE9xHmMTFcE43EAHH06Vn3dxJczvJI25mOc10xiviYOQ0Pl+vWponCtjsaq9OKkB496ym76lRZfPTNQvzTom3JTWHJrIsYaYaeaYauL1JZNC20ZzzUc027OOpqMtgZ9KjJ5ya0aIFU4qVTjkVB1NTR81nIaLUdwCMSVMuDyDkVT2igOyng4qbFXLbYzkqePSonAz8oPPrSC5bGCu6nrJkbigFAXERDjAB+tSO21Qg59ab5jduKO/uakobweDVWeMq+7tVsjmkaIyLgjiqRLC2lDpg/fAqbDr8xas05gkyO9aME6SgDOOO9Pkb2JI7qFGj3cKw9O9P0+G1+f7WZVyv7tlwcH3HcVb0uxj1e/wDInuUtUKnymcHa7emaXU9LvNKuTb3sRQj7rdVceoPeuhv2ceXqCWpTcjOM8etIozzTHPbFSRc9q5jQeKtxRcfNg5qrU6S8Y6cUANt55bWcSwSFJEPDKeRUhSG6OQyQyk55+43+H8qr9STUkfA3UgI2hMEhSTG725qee7ubmNY7mXzQn3S3LY9M9cU0be/fpQV5zViK7IR0NJg1MQBTaBkYJ7ilx61IBml2560gICR6Cmn8fwqcqOwP41GVbtigQ1Pzr0f4baevkz6hIuWz5aH07n+lee28bzTJHGMlyFAHcnpXtuhaeNM0i2tAMtGnzn/aPJ/WqQmaNLSUtUQFFFFIApDS0hoAwvGGoXWmaDJd2b7ZEZcnAPGeetc/pnivXJrVbv7Ct5bnI3xKQc++M4/Kt7xsnmeFL4f3U3fka8l8OeIbrQL7zoctA3+thPRx/jTvYh3voXfEfnanrc18IDCzhd0THkHGO4qLTbW4WBwISfnP8hUnjbVLbUdah1CwlyksC5A4KkZyCPWq+l3Mot2zI33/AF9hQ2FpHRbf+Jnet6zuP/HjWhaxySc7fl7segp4sFjurh5gpLTOdoPvUzMzjag4HQDgCuSeIS0R2QovqBiXp6d6v2sYgi8wj5m4Ueg9ap2aPPcLGcbE5c+gq9I+989ugHoK86vWb0ZtypaDwST1pJS36ckGhen41Vll2yhY1DqAT16muenHmYyVTF95mZOvBPNM3Rsnyq2zHJAzVfcxfZMwQdQR2q7FGsqbyw2g4wBgMa61HWyERRQb2gZt/LfxdBWneWwnAO7G04qt6ruz6+2KgnupluFgVvv+nXJqqkLR1CzTHXki2dsVjbc7DBPpWLOrKixr8rPxnGcd6ffSLDMPMkypO0EnrWVrl1Pb2zNE2yQ/KvOCAeuKmjDUctjDt+JHZm3ZYkmq0Mn2vVVbrHH0/Ci6k8q2WGL/AFj8fhVnTrbyozkcmu96K5zLVl5qI0LuFHBNN3fL9O5qazbE4bJ3DkH0Nc50JlqWRreIquFzhR6+tQ26GWZQzMwHJFJes7y8jHvVi2nFpbFYk3TP/F6Ctk7oyktTVN61rIGCAOE2oP7vH86z0aa6myxZyTyaiijnnlCj5pG5JrotM09ooSWAw2CTTsyG0jU8MWqWyTYGGbGTWfdb/t856DzG/nW1o7xlpkj5KkZNVrjR7iW4eRWiwzFhknufpU14OUVYVOaUnczgmailix/+qtYaPdj+KL/vo/4UjaNdH+KL/vo/4Vzewn2OhVYdzFMYKZAqsbZyDliPQdK3joV518yL/vo/4UxtAvmPMsX/AH0f8Kn2FTsV7aHcwvsbcHAP1aoXiwxGADXR/wDCP33/AD1i/wC+j/hVdvDF+zE+dBz6s3+FV7Cp2D20O5idOjgU9MH/AJaVsf8ACLX3/PWH/vo/4U4eGr8f8tIP++2/+JqlRn2E60O5Ut5FiyVJNMuJy/RCa0V8O34/jt/++z/8TSN4c1A/8tLb/vo//E1fs6lrWI9pDuYTsx/hUfU0z5z0I/AVunwzfn/lpbf99H/4mk/4RnUP+elv/wB9t/8AE1Doz7GirQ7mF5bfxHFG1emTmtz/AIRi/wC723/fbf4Uf8IvqHaS1H/Am/wqfq8+w/bw7mEcD7ynHuajJUdAorfPhfUu81t/303/AMTTB4Tv+pktj/wJv8KPYT7B7aHcw2fI4yajAYt3x9a6L/hFL/8A56W3/fTf4Un/AAimof8APW2/77b/AAo9hPsHtodzEhPO08ZqyoArS/4RPUP+e1uP+BN/hUi+F7//AJ7Qf99H/Cj2E+we2h3MlhuoWNR6Vs/8Ixfd5YD/AMCb/Cj/AIRm9/56wf8AfR/wp+xn2F7aHczrPZ9rh/31/nW74tsnvbGFI2AKvnnvxVeHw7eRyxyNLASrAnDH1+lamt/6iMf7X9K2jFwg7mUpKc1Y8yuNCvxMcRceuRT7Xw5JGxlnkGW4wozxXWyDPf8AGo93UYyK5nWkbOmjm5tLFsjNBu+b7wPP41h3ZYKY2U+gFd/lOORz2PWozbh5QEjjLE9wKqFZ9SXTRy+lWN1LLCSjJgjnpW94uk26fZ6egOXkH4gcfzroYdKFsolkZSwPyqOmaiW2s76R5riFZWhfZFknt1/WtIJynYz50kcxIjpDsxnjFYk8JbKsOldrf2M0Du42mI/dwoG32Nc3qETRP5qjIPUelVC8JOLCaUlzIxhI1u+4cbeeK6zT9SjvbdIb1jwPkl7j2NYJiS4HK4BHNaCW6IFWDPK7sH9amsk1fsTB20NoRz2kgDnI/hPqKmluESMOPunt6VmWt+YYPKnPmR4+4eo+hqxBZpPMk1vMJrcEl0P3hWKq2NLkkt/Fv8pPniYbs+n0omubdEXypCXU5AweKSS2tjF5ccm3Y54zyP8A61ZUrTJPGixiVCwGR1qXabCMrjdb1cXyxWsZxj5pR6HsKpG1WSJovUdah1QIbreVKNjBPrUD6mY4dqD5l/ireNKyXKZSepDFarDdNu6ocDNX1+b8KgtLCe4tjdHDE84B+b61OoZPkbrVN6msFZCj5yRV61+V4x6MKqQLuJFWI22TRgf3hSjuNnrI6Clpq/dFOr0UcIUUUUwCiiigAooooAKKKKACiiigAooooAKKKKACvDPEqlvEupf9fUn/AKEa9zrxHxFj/hJdS/6+ZP8A0I1Mhoyli+bOeKmxlcdqbuwenFLu468VJZFJCRkr0qE1ZMwxxVc8sSaAEPSoxw9SGo24cUiGi5bTDHlTf6s/pUU0LQybTyOoI7ikWJm9quIFeLypTnH3T6VOxNrO5QoqwYSnUdPWmEIPU0GiI+lSwp5jeigZY01YndsBTTrvEMIt0PLcuf6U0rkza2K80u9y449PpSRzycDzDj35FVyp3U9DjNVYlRRb/dt96KM+6/LTgkRXAZ0+oyP0qCNuxqdTjjtSZXKKbdj911f/AHTUTI6/eVh+FSMuaUTSoOGJHoeRSuw95FSY9hUVaBnjfiWBT7rwaBHaSfdcof8AaXinzdxc1tyvHwvuae52Y9e9WY7IlgQyyD/ZNQXUTrJ93j1xQmmHOmJkSD096gZufp3qZBhD7jFVmqkFydLnegjnBdO3PI+lRy2xC+ZC3mJ3I6j6iohThI6fMGNVdk2IaUVP+6n9I3/8dP8AhULqUYhhgigadiWF9j+1WXHcd6pKcjFW7d96bT1FZtGiYxhTCO9TuvNREd6SZTIGFNYdKmYZphGa6FK6sQ0MHWnrvU5ApNoJ4qaJGJ6VDRI3zj0ZcUAg981Iy4OGFROAoyKQx4BzViPDDaOTUScoCfSp4SwHOFT1xyaljQuw7jkUuAMYHNKJByG6etVp7jHyx/nSsVzFgipYW+Ur0Jqnb3AdgsnJqd3C5J4FGzDcW5txKOAM9x/hVOK3zOFJJGfmx1Aqx9qd/kiHPTPepkjES7TyT1NdEVyq7Isb52JppjiA1DSl52HCz2pPv/8ArFVp9TuLfTvslvex3dhJ0jnQF4/w7H6HFZkUskEgkikZHHRlODUEh6t1PU1jKTk7stIaR81TBcLUUXzcmp/aoGAoIzSHjpQW44osK44DGAKlIAQgelRx9yewpRkRgnvTGRgnOKeGakQg8DrTiD0oATdntSUuCOgpMGgB3G3jrSAkmjBxRz6UABNAAppBzT1WqEdf8PNKS51CS9mjBW2Hy5/vn/Afzr0quI8Ia7olpYJZ+a9vMW3OZhgMT7jiuzguYbgboJUkX1Vs1RLJqKKKCQooooAKQ0tIaAMvxKnneHtQjx1gb+VeBmvobU4/M026T+9Ew/SvnlxtJHocUmJfEJWxpP8Ax6t8ufnPP4Csc421p6Uf9Gf/AH/6CkUz026Cfa3B+YlzwfrTHaJOM7fpS3cYF1IWOWLnj8ajtlWWdIcZyea8ebsz0lsWYwILIMq4abk+uKapOKW8kD3O1fup8o/CoGfb/Qetcz96RLLRmX7P5EeTMTknso/xqDy44V9+5PeixtTC80s0+6WQ5GOiD6VOYw8QfblRzz3rupwUUTcokiR/n/OtuzWOXT/Lj4KcH61Rjs/MIZhyfyqzHF9ncjccGtI6O4mSvmCJ2n27UGSFHLVgSzNNOWcEv94L6D0qzJcSS6q9oJWEboSxHtVd7KWJ/NkcDn5VHeoqS5tCeez1EsYRdztPdAbY+gPasnxDPaz3CQoPkt1LSMepY9qsax+6thNu24IAG7AJ7VzYaS5lKO3yDmQ4+9TpQa1FORWtYjPMbqQYH8C+1aELfOaWfYhCL2GT7egotI9zDPC9zW0pXQooekeZNzfdznmrUOOMfez+lMcKGJT6Dmrmh/Zf7SRb5tqHIyPXtWa1NHoPRY5DsmXg9+4qxcaSLaUeVL5sZAIJGMVqX9vBNKkVtFt5wHP8VReXdac2WdQB/C3P6VonyrUh+89BbKKyt8FpCTj5uMZ9qW81YsPKhGAPTtVKWaaf0CA9uKW1s3lkCxoevpnNQ6rekRqCWrN3wjuAumfksV5/OumrL0iye0jbfjLY49K1K66SfLqc02r6BiiiitiAooopWAKKKKYBRRRSAKKKKYBRRRSAKKKKACiiigAooooAKKKKACiiigArJ1v/AFUf+9/Stas/VLWS4gAixkHOD3rKvFuDsXTaUk2YUsYIG01VZXCg8EZ5NWzuj+SQFWHUGoj/ABdQT615Ek0einfVGbcKrvlT93pSR3LphZBke1PmjdOSAw/UVBn5io5H909RSQzet9Qje0WNXZnjBbB/SsuC8uLW1mhgmhE7ynGV3Ee/0qsOPubvfB5FR20fkly3zb23EnrXRCryp9zGVJMsqt5K2+8vpZj/AHQdqfkKLhFniKFcEj8qnUrjPGKifqfTtWbqSbuzRRVrGCYWglKN19KsRhgyyRnLryKs3cSsA2OP4vb3qJBtYDOfQ9jVN8yuYuFmW7m2S4gWeAYJ6j0NZoluLOXehKSD+IVemaaGJZ4zjP8AD2YVA2pWc/yzDY/v0rPlaBMlj1O2usfbodkoHEycH8aqXemalIpbSdRjnXrtyEcVRvp7RP8AVuWPoK0bKzIskuwJArHgrW9OnLdESaRzt1peuQnD2M5z3Ubv5VU/szUXdRcW80aZ6upFdo9/cxJi2u1Yekhwf1qlPq9+fknIG4egwa3cqkVsiVaTL+j26xWSIzDj86lu7JZBnbn/AGh1qtaTB0Dx8e1XIrkjII/OuOUne51pe7YzTbPGpZRuA6kdarLJ/pMarySw/Dmt2VoxGZF4IHQd6yoLdjMJmHzs4J4963py7mc1Y9VT7o+lOpF6Clr0kcAUUUUwCiiigAooooAKKKKACiiigAooooAKKKKACvEPEbD/AISXUv8Ar5k/9CNe314b4jjZ/E+pen2qTn/gRpMaKJ5pGUkU4REd6UqQKSaY7MgKEUhQkVMcU9SgXmpkNMhjhHem3EYEJ2jkc1OZEFRy3CbSFXORUK43awRbiisehp/mYPGKhtrlQnluOtSvIP4AKLCTuibd50RBOGHT3qvjb7n0oEjZqXb5+NjAN/F/jSehDlyiwuURpnOAOAPU1QZi7FmPU5qxezhmESfcT9TVY8CqgtSU76kMh+amDg0p5ak71qWiUHirEbblx3FU1POKmRtpzUMpMtLzwe1IwxxQpyNwpScipKISMUijHWnMQOtJnAyaBAp257eh9KnW6lUcSEj0PNV876kC52+h4+lVYzcUTNNEVDTW6c904IoaKxn5WZo2P96q04Knae1RUnGwuTsWX0uUjMDLIPY1VkgmiOJY2X6ip4pMcAlT6g1bS4uFGPMV19GGaV5Ii0kZSxh+Bx9KXcw+SQblHr1H0Nanmwv/AK60UH+8lI8VjcdJCjdt3anzd0HN3Rl7BjdGdw7juKdE2xw3rVx9MuFbfC6vjpg81XlglH+ujZD/AHgOtPmTKU0WDgjPY0jIKigcqNj9uhqepNoyuQmIDpTGi9KnwKTGKcJNMbKywluhpyRyKflbH407PlyZ7GpevStJ9yURfvN2GfOfalYD7uOKk9upPapVTyvnfluw9Kz5hWI44wvzP07CmzysB7dqkJMhyetVZyT8vU0xkTzOeKaDxRjHWm4Aq0SOX5XDenNOeV5W6/hUdaNjbDHmyYx2q4xW7GSWkIhj3EfMf0qRuSat2MrQT+ctqLjyxllYEgDpk4qa+sklsBqll5QhLBZIUcsYW989j2rOcru5SMo9KYelOPWmnrUDHRjFSdaRBxTulITGHNAWnqueaRmAqkSOyMbR+Jp7unTOQBVbJJwvQ0jDJx0A60x3BpFX7rHPqBTkuHP8IPHJpriPg4HsBSbwF+UcGiwrllXJGQRTiN1VA2CCDirO7cow1IdxwGOKBg96YrNnHUU5jgfKuTQA7GTTgOMYqGIyMfm+X2on3H7rbfegCwY/k+9u9R1qOKae2fzLaaWIr3ViKgF00ZCv+BFd9oHhCy1PQ4bue7dpJRkGJgQvt0600K5s+G/FOmX0SWxuJI7jGNs75LH2bvXUV5fqfgDU4mzYyxXKf3T8hFM03xFrvhuYW+qQXD244KzA5H+61MTPU6KyNH8RaZrKA2lwPM7xNww/DvWvQIWkpaSmMjmG6Fx6qRXzxeJsuJl9HYfrX0U33a+f9XRYtXvF7CZxj05NJi6maa1NI/49X/3z/IVmyLtw3rW7owU2bfKv3/6CkM729k/0mbbgNvb+dSaSv72WbtGh596huod15NlsfvG69TyauWojTTLh4+/Ge5rxKr1PQ+yU9252b1OaqzyM8+yPgryrHpmplPWq1xuFxHtbnOfwpUUuYk1kYbooWbcTy59a0ggKgsML/CtYWlzRyzSTMcAHaPwrRubwJGZDwf4R612kksk5V8KaLq4R7XkfP0AHc1lpK0h3VGtw097BFuxsbc2BngUpOyC9tWXY9KuFBnlO1gvAHUVlX96kDK07bVU4yeeKfqviCRJGjhL7d3JPUgda5nVL4amQlujBR2P8X0pQhfVnPKV5EWo3s2pXjNn5M4iTso9at21stvb+Yf8AgOf4j61PY6QIoI5br5RjIHc0moTgAt/AnQentVyqJ+7EtLuZ08uJCMZZuTUkbkD29KqxZLF5Or/pVkYxxQ1obRRMgzg0s7YxtoRSVGKtW9p5jDPSpvYY20lvJlWJZpBGD0zwK27W2IGclmxySc5qzp2jSzYCR7V7seB/9eumsNIt7IBh88hHLH+gqownU9CJVIxMKy0S4uWMkpMMeeM9T+FdLa2cNsm2JcHu3c1ZAxS1106Kgc8qjkIBS0UVsZhRRRQAUUUUAFFFFABRRRQAUUUUAFFFFABRRRQAUUUUAFFFFABRRRQAUUUUAFFFFAEFxaxXC4kQfXvWLeaVLEpMRMi/TkV0FLWNSjGe5cKso7HEOpGQ65HvUM0Kvlk4AGcZrsbrT4LkEsu1v7wrm9U0+a1QkglO7DpXn1MNKGqOyFdSMj5lYfw+mf8AGldxnD8H+dLnAwRuWkKqRhT+B5rA2FTI5HQ9qeZMde/aolyBz8pHrTipcZHOO4qrXQXHFQ44qmyi2ctMrNbnk7eqe49vUVMJCtB+frzRFuLE4qRFdTiUAq6vGw+UqeCKybyDeualvLWa1zPaDIP3ouzfT0NQW1/DOdhJSTvG3UVrZy96JhKLiZcyeWfu10nhnxGdIi8i+iaayl6Z52HvxWfcwq3apbSGKSzMEnzf0reEzKSudu2naJr9v5tlKisewP8AMVyWt6Dc6Xh5FzEW2q4ORz/+qsYi90m4328jLjoQeorSn1+51HTza3GT+8HPrgGtptOJEU0yCxaRJAintWotwRwy/jWZZJItwCy7eD1rR27/AGrgnud0Nizu3J8nJpyyfv0XaMAgcVSimMbdeAeR6iukZ9K+ywMFBkOOAea6aUYtHPVbTudgOgpaQdqWu5HIFFFFMAooooAKKKKACiiigAooooAKKKKACiiigArw7xLcKviTUl5JF1J/6Ea9xrwjxNKq+JdV+Xn7VJ/6EaTQ0UTcseiGm+dIewFQmVmIqbZuWlGI7kmflzSFWccHFC/KMCkaVVHXBpsENdFQc8tj1qk7segqSeXceDUOaVgY8fdz3qaKb+FvwqJasLAgXcTkGpZKJM5FWSfstvv/AOWr9vamWUKuxLf6tOT71VvrkyzFu3RfYVG7In7zsLcr5mJY/uMef9k+lQyNtXrSWsmCysfkJ5HrS3SbcFfuHpWiVikrEHeg0UN0qihKmRtw9xUFOVsHNJjLUbbTg9DUx/SqwORmpo3yMHrUMoRutI/SnMKYaBCRnBq2oG3261QDYkGenerMrYUlTxirSJYlzKjuAOw5qLOR7VVySfdqsR/d2nqKTQJjqkjkKe4pgGKCKQyzvDcj8qYT2qNeOc07zAeD+dADldlOVYj6GpBqVzEcOQ69s1Htz0YUjIGUqwqeUlwTLK6jay/66AA+q06ZIDEJISw9QRVTT7bzZyWPyJ14q5qRlWXa6ER44PYmptrZGcdJFUtTCc0rU2qsdAjDK063JkyvcdT6Usabm+Y4FLJ/o8oeP7pGCK2jqrCZPhY/96o2yx5poYtyetOY8Vm1YEPiwvJqtdIN29e9S7jjimsMjmkMqEAimFeKtiNaaIstiqi7isNs4PMfLcKK1CBgDsKhRVChVqQZUY605TvogsWLKC8lmc2Em2eNchA+13HfHr9KlsA+JGtp/LvsndbuoCyr3HoT7GqtmbYTn7Y88aYO14gCVbt+FW7iNbyHlC1xF9y5QHE6/wC1nnPvWd7DM2Ta0rtsCZJO0Dhfaoxy1X1024ky0hVfcnJNM+wThsYBx3zxSckFyDOBgVYEC+WCWx36UGzlAywwO/NNeVI4wMbz0pp3ExWYhNsa/Ke5/pUYiVRuY59hUbzlvb2qLe3rVk3HSyZOAMD9ahZwTRI+W6c1GQSeaAHc+tId46UqISeBViNdnVc0XAqgs5AzzU6ROQMtipwVHPljNK30AoHYUnApu6mM1NzQMnU7m/nUhGetNDJsRfLCMBhiCTuPrS0ARzRKyV0HgXUdS07UFtbWGS4tJ5FEiBSQmf4s9qpaBpbaxqLWgz9wtu/hX3PtWqdC17SLj/RkuVI6PASVP+femI9VqOeCK4jMc0SSIeoYZrlfDmo6490INUt7h0wfnMYXH1PFddTJObvPBeiTzedHA9rLnO6Byv6dK2rG0aztlhNzNPt6NKQWx9QKtUUAFFFFACV4N4oQxeJ9ST/p4Y/mc/1r3qvEfHUWzxhf+jMrfmooYluc8/zIR6Vp6NJi0Yejn+QrMbg1qaTGGtnPH3z/ACFSUz0e75upu2HP86nt1/4lE31z/Ks+e8jbUbiHadwkYfrWppZEsc0HcjOK8Oqmeg/hMtehrNv2nE26NT93Ax61pupjlZD2phUHg0qcuV3IKWlI0ZzI33Rzk1dl8y5kBH3ccD0qjJM6t5fkEru5I7irSXUkibbaLB9xiuxTTQhLu5+zRC3jGZn4AH6mrtrA8FuZGA3NwOOtQ21ikN15twhdwOWbvV2ffPEUidU3cAgdPpWFSuloRJORxesMz3jWtt87Z+Zh/IV0Hh/QI7eH7ZejAXnHYVpWejWenxefMQu08luprN1fV2uf3MfywL90ev1odWU1yx2JjCzIdTvRPKwH+rXpXN3EouZQB9wH8zUt5OzsYlOB/EaZFAxxxgH/ADmuiEVBGijcYFz90VYhg3ffb8BU8MDSMsUUe+RjgBRkmuq0fwfI+JtSfYP+ea/e/E9q1UXLYbko7mHY6fcXkoitYi3qR0H4122l+H4bSMNOBI/oeg/xrWtrWG1hEVvGsaDsBU1bQoJaswnWb2GqgUAAYHpT6KK3SSMQooopgFFFFABRRRQAUUUUAFFFFABRRRQAUUUUAFFFFABRRRQAUUUUAFFFFABRRRQAUUUUAFFFFABRRRQIKMCiigZg6l4ehmDSWh8qU/8AfJ/wrnLq1uLN9tzFt9H7GvQaint4p0KSorKexFctTDRlqjaFZx3OCVh/F+dTW23d8vfsa1NQ8OtETLYtkdTG39DWMQ0cpjliKsOqt1FcrpSg9TpjNS2F1K1+zOHT7knT0z3FVVP+fWtV5t9qIm+YDpntWWwH0PasprU0TF4YY/Ss3UdEgu+Y/klHQ9xWgOGqT6//AFxURm4vQt67nJyLqun/ACSR+fGO/tTU1a3K4dJIm9MZFdYcEYYBh71SutLtpwWWJSx9V/rXTGsn8SMXS7GLPq1pLFtJZmXpgVb0mISjzim1R9xf60n9mQRn/Uqre4q0i7W44A7051U1ZCjSs9S1KrAq/XsRSZ9qVLj5GVhnjg06Db50TS/dDDJHpWCV2avRFA/Ix7c1btpNzInbeCPrU2q6d9nw68wuflI7H0P9KrQDa8Qb5fmGK6FeLMW1KJ6ovQfSnU1eg+lOr0EcIUUUUwCiiigAooooAKKKKACiiigAooooAKKKKACvAvFC/wDFU6p/19yf+hGvfa8E8VMn/CT6od3P2qTj/gRpMDNgUFzk9KsNwpNU1cZJFTCUshx2poCwnTNUZkIkPoTVyI5SobkfJnuDQBUNJS0hoGOU81PHvaQJHyT2qrWjZt5DiaRDsIODjvUT0Ik7Fm+kFrALeM/MfvmsZznvUk8rSyFj1Y1FiiEbLUcFZE0S4X609JQQ0cudjHg+hpn3UqI1TQ2h7qUcq3UfrTalQiZNjH5x9wn+VRNxSAbRRRTGSxNzg9Kkzg8VXzipkbK1LQ0yyDuXPemsOKjjbY2T0qZhu5HSpKKsgIzik8w7Sp7CpmQ1BKuORVJktEfenoxBzScNgDrRsJ6VRJZVsig5qGOTYcNU3mBhxUtDTAZpwXNMDVIOaTQ0BOPujmmb5mcIF6nFSdKv6dblv3rD6VLlZCnsXLK2WCFVXtyT6mrpVJY9rqGU9Qaaq4HSnqcVlFtO4QhZamNeaU0WZLb50/uHqPpVDr06+npXV1SvNOiuvmT5JOxHf610RmnpIuxhUjjIOe9STwy277J1IPZh0NNq+Vx1Fe5FCxB2N1FSGo512lZR261ICCMjoelE1dcwIAKU0maUGshiAZ4XknoK07e3jih+f5nPX2plnbBD5jjk9B6CrOKUpWVkNELWsbcrwaZ9lk6BuKsce5pVbB56Cs+ZjLGmwQIGiu9OSeORSGkEmGQ9ivpU0UawxiNXOB0zSQSpzwQcelObn8KmTuiRCfemE9ad1NIRzWDkBDOMwsD1I4rFfcrkelbjc8VkXsbLKT2NdFJikUy3JNJu4xTiBTT610EhTScGjNNfgUAWIZAOoFTFlbuaz1OKlSXFQMtGREYA9+lOPPNZ1xJlx9KdDM69GyPemkFy2wqzb2NxPaTXEUDvFDgSOBwuaqLcKFy45q9a+Ib63sZLKEolu5JdSuS+fU1Qyv0pd/y0xJlO5WAHOc1qaXpv9pajDaNJs8w4yACfwzRuB2fw60u5toZtQl+WK4UKikcsB/F9K7mqmnWpsrCC1ZzIYkC78YzirdMlhRRRTAWiiimAUlLSUCCvIfiMvl+KJGwPmjRv0x/SvXq8o+KFpcLrcV20WIGiCK45yRnOfzpMDiHOa1dLiY2zFTwW/oKyTWtpMjLasB/fP8hUopnVndJrl15fCpK+5vxNdBYSxWFnLeTNhAcE/wCfrXF6heTR6rdJE+0ee/Tv8xrofETtD4Yt4MfvJiDgfnXmTp8zOvm0sbOoWaXUa3Ntg7hkEdxWTtZG2uCD71Lpd89h5NgR5m2INIOpU+g/rWwJbK5AzgMw6N1rknTlB2BMwvlqSIbSCq/lWsRpcMv7ySHd6Mf6VFPrOm25xGvmEdkXA/OhRk9kHMhkVrPOeflB9aknntNMXDNvmA4Udf8A61MbU5Z7KWdYxEn3Uweawnt7i4OdvB6t2rSOFe8yVO+xFqOpz30n7w4UH5UXoKqtCwh8yQ4HvWnBYx2+WkO8+/QU2PT77WrjbbJthU4MjcKPx7/hXRCK+GKKtZXkc88agkgZJ710Wj+Gbu/RJZs28J7sPmP0FdRpPhiz0/bJIPtEw/iccL9BW6BXZCj/ADGMqvSJQ03SLLTI9ttF8x6u3LH8av0tFbqKWxi23uFFFFUSFFFFAwooooAKKKKACiiigAooooAKKKKACiiigAooooAKKKKACiiigAooooAKKKKACiiigAooooAKKKKACiiigQUUUUDCiiigAqpeWFteLiaME9mHBH41bpKTSe402tjlb7R7i0BeIGaIenUfUd6x2UMCD2r0LtWbf6Nb3mXA8qX++vf61yVcPfWJvCvb4jiNn91gfY0cn2+taGoaXc2RJmTcnaROn41R7cHI964JwcHqdkZKSuhOD14NKSBwajIJPDcelKcgfLz7GpKGsqu4BBOeKZLathtmPpShihz09qu/eQE455p3sBkfMGwRipQwHSrMsQYEEYqAwlRxVKQjVhuXvoUt3A2fdYev/wBcUt5o0luYyV38jkelZVvM9vOrc9a7JbsXVkrMobkcjr+FdlN868zlmuV+Rur0H0p1IKWu1HIFFFFMAooooAKKKKACiiigAooooAKKKKACiiigAr5+8Vx/8VVqv/X1J/6Ea+ga8E8VK3/CVan3zdSf+hGkwMQLkfLU1upJwakW2B5c49qnRVXheKAGRnt70XX+rNNXiQj3qV138UwM2irq26DqM/WpAiDoo/KpchmdUodnRUYkhegq7gdgPyprRI3VB9RRzA4lF0I5UZH8qROW9au7FHAXH9ajaFd+UGD6UJgQyn5QKj7U6U/vCKbTAKmK+dFuH31HPuKgpyuVII60iWhtFTSKJE85Ov8AEB2qCmNMd1FKjYNMBoPBoGWOtSwvg7T0qvE3Y1IT6UmikWmQGoHTPanxPuXB6ipeMVBRQdcHilR8datvGpHNQNCe1UpENClVkGSM/SozER900m10OQSKkVyRgjPuOtUKxGjFT83IqxGQRxULxFuR096ng2pw4wKTHsSQxmWUIPxretlRVwvRRiqUEYhQEgB2/SpYnKP1HNc71ZMfedzQ7U2hvNX7wxuGRkHkVGd3Tdj6Cg2LnleXAHkdAWGUQnLEeuOw+tRsysx2ghewzmq+D3cmlUDuuaAFlWKVNsoDL6Gse6sHgy9t+8j/ALvcVtccYRV+ppruo6yL+HNaU6rjo9hNHPIySqf1FQRnY5iPboa2Lu1huP3kJZZfUDg1kXEcqOPMXaw6Hsa7YKNRWRDuiXtVuytt5Ejj5B0B7mobOI3B44QdTWnt2qFDYUdAK46nuuxUdRzYz0qNmx0pcZHek6elZFCBvrn6UFietJj0Y0HH93n61IyaOYhcLjp1qzbyb0+YjPTFUA23sBUsb8g5wG4PsaVrkNF0jBoFRRTb+Kn4xWLi7jI2TJqpd27SLxV1nC9s0zzR/d/WrhdMHE51lxxUdbXl+e7Dyzk/xMnBqM6SO7H8DXVzrqTymWih8jFRyxYFa/8AZ0S/xSA9qhksXH8YYdsjmjnTCxj4pwJHarM0EiLkJx6jmqzNTvcGgMe/nvTSjKacrEUrOWpq5IqAN1NTbEGMmoOgziphiRcCmxjmb5f4fau/0V7G91HSHuD9me0Qj5flEpx8uT1z/OuEFopA+ce4xWtbzGMBWHHQGspSaGe1jpxS15Ql/fLjy724QY/hkNTpq+sr/q9Rm/E5/nVRqJiseoUV59b+K9Yt02zCKYZzudcH9Ktjxtcj79ip+jEVpcVjt6K5Oy8b2cs6Q3Nu8G443kgqD711SsGUEHINNMB1FFFMBKqalp1vqdm9rdIGjcfiD6irdFAjwzxP4eudAvvKf54Hz5UuOGHp9ah0n/j2f/rof5CvadZ0q31jTpLS5XKsPlbup9RXlM/h+70y5ltZ4Gk2uSjoDhl7GpaC5Yhs/t3ieeHsbl9x9txrtmsRf6jFJcgGG1HA7Fuo/pWdoum+RqV1Kw+d5XJPoCxxW0boQ6aZ2PXLgep7CuOnaVRvojqmtClqCR2pFraqA8g3zMeSR6Z96pZw3HFLGWbc0jbpHO5z6mlK9+BXLVnzyNYRshQUZt1zAJvQkkEfjVc2tkr7nhk5PTzKkZl6Kfmpo3OwVfmYnAAGTRGUuhThEufblSERRQRpGvdhuP60yMT3TBYVMh9ewrRsNDZ8SXRKjsO//wBat6GCOBAkShQPSumFGc9ZGEqkYaRMe10KLIe8Pmnrs/h/+vWyiLGgVFCqOgAwBT6WuuFKMNjnlNy3CiiitCAooopDCiiimAUUUUAFFFFABRRRQAUUUUAFFFFABRRRQAUUUUAFFFFABRRRQAUUUUAFFFFABRRRQAUUUUAFFFFABRRRQAUUUUAFFFFABRRRQAUUUUgCiiigBrorqQwBB6g1g6h4cglzLZnyX/u/wn/CugoqJ04z3KjJx2PN7u1ubKbbPEU9M9D9DUDO3XGPpXpM9tDcRlJo1dT2IrmtS8MumZLBiy9426/ga4qmFa1idUMQnozmBJuyDg/WrkAXyl2k/wA6ryxPG7JIjIy8YI5p8I/d49DXK42Opak8gyKi28c1KuGIFLNGVGaSArsm4YYZH60+yuprVvLVg0Lkblboef503PrQo/eJ3G4VrTk1IicU1qekjpS0g6UtesjzAooopgFFFFABRUEl5bRTxQSzRpLNny0ZgGfHXA71DPqljBJJHNeQRtEoZ1aQAqD0yKALtFIDkZprTRr951H1YUAPoqs19aKwVrqEEnAG8Zz6VZoAKKr3d5b2hhW4mSIzOI49xxuY9hVigAooooAK8N8TD/ipdS/6+pP/AEI17lXhfiZ/+Kl1L/r6k/8AQjSAz8ZprMF6UjMajJzTAkCbvnHXvT6jQlfcGpQtADaKWkqJIpMKKKKkoQ03vSmkp3EI8aSD5hg+tVJoXhbnp2I6GrlSgFhtK7lPXjihMloyxz1ox+VXLiyZBviGU7j0qkc9DVXEOSQxNlfxHrSzRjAdPun9D6VHUsMhQ4PKN1FMRFilxmppY9j8fdPINNAoGmKiY5p+3mjIC5NNDn7zdKGO47lTkVZRty5/Oquc806N9rexqGikyy1NpCc9KTNSMfgelNKDqAKATUiDNMBm09B1NW7W3A/ev/DSKmCO5NTOzqoiUZA68d6l9jKbvoPZ97Bs0fnx04qOMsWxJjnpzUrYA6ilY0irItG8muJC8xaWRupJx/LigmY9Iwv1qnHJh1Kkn6Cr4LFd1Jljds5/5aKv0FHln+OVj+OKdtz1OaXao7UrhYQR2465P1pwMY+5GKUBe4pwx2pBYQs23jAqvPCJUxIu4Vb4NRupPFNSad0OxRtbVLUNsYjd2JqxigjFFKUm3dhYQj3qJl5qXK+tRvtpXAaoHpS4yelNLj1pQ6nvQMa8bDocikQ44foasJgj2oZQ3G3NCE0VyTHIULYcdD/eFW4rgsNrDB9PWq0/lyxYP31OOPSoxKNoSXp2buKbRJqeU0i/3fqaVbZE+82W9KqQ3EkeA53R9AwqwXDDIINS3YCY7gox0FGwOMg4JqFXI4HSpl+dcqeRQmpaA1YiIkQ46rSeUHG5OCO1S5L+zDtS7SORw1VZoLlJx/eAyPbmqc9jBOSXyjf3gK0XOHy3J9KTcpzkEfhTVwMb+y2RtzNmPHDD+tVjACrKOoPBzit5sqM7gB9aqy2cNxySFb1UVamyWjFVW8za3Qdal+VW+StqS38yMJHFGOAN2cYrKubSSA5Ifb6kVblcQqOc1ZSYthaoBsDHNTwmspK4zXhk2qBV2OXjisiN+MVajk2nrWLuthmosgP3qfjPbiqUU6HrVpWyOOla063SRNgeFG6qK6/wrq4eNdOuG/exjEZx95R2+ork+adHLJBIssTbXQ5BroEepUVS0m+XULCO4UYJGHX0bvV2qAKWkpaQhKKKKAOb1FfsNncSD/WvuI/E4FZZuHksLWNgBgZbn8BWtrckbq5kIATJx646fzrm7WRjCC/3mJNee/dvbqdcVzPUvbtvv+NRSOe7fgKmsrG7vG/dphO7HgCuisdEt7XDOPNl/vN0H0FZ06EpFzqqJiWOk3N3h2Xyo/7zdT9BXSWen29mv7pPmPVjyTVwcClrvp0IwOWdVyEApaKK2MwooooAKKKKACiiigAooooEFFFFAwooooAKKKKACiiigAooooAKKKKACiiigAooooAKKKKACiiigAooooAKKKKACiiigAooooAKKKKACiiigAooooAKKKKACiiigAooopAFFFFMAooooApXunWt8mJ4wT2YcEfjXKXvh+8sS0lufPh69PmH4V3FJWNSjGZpCrKJ54hBbpg+lOm3FB7V11/o1reZcDy5f769/rXOXenXViTvTdH/AHhyK4amHlA7IVlIzhhvvcUqRnzVxyMipdqnrxT41IlXHIyKxj8Ro9jvVGFAp1NFOr2Y7HlsKo6zaxX2mT2s87wRSJh5UYKUHrk9OlXqztav9PsLJn1WZIreU+WSwJByOnHNMDif+Ec8Kf8AQ5T/APgyi/wq5pOgeHV1S3ks/E891cRvvWL7bG+/HPIAyRVPy/hj/ft/zmqzp938PNNu1u7G4ginTO1h5pxnjvQBR1nUtQi8cTSC3kinRRHavLHmNYRzJJ78elc7Nqr3/wDbupf2lZwm5IT7NMu55VHTb6V0OsXunxeMZ7w+IWWT5YjbR2rO2zjKbiMDPPfvWJdKkVt4ijil0qCMTttimUeeR/0z54oA6rQJ9R1Dw/cQ/wBvWE6Jbr8iwb/KXHKsOM8cda4/ULGB9ElvbSIPD2lTTWjXrg/PvIFdt4YuFXw/c7rnTJz9mH7uwUGUfLj5wDkmuJv7U2nh+SH7BcBV/wCW82msjDJzy+7A9OlAGnaWQt3s96RW7zMiRPLo/G49PmL/AK1Y8URWI8W2Vve3jxXBCSXlx82xyOAqoM4ziqtpF5sunSNpt3GtvLHLug0plLY9W3nj3xV3xlcx/wDCYW9pdXkP2GRoZJSVyYdp6EgcA0AY3iV1bVYzMtssn2rMipfu2DnnI/gHuOldN8PJrp9Y1KNBE1mAhLLcNIFbHAUnqDzmuf8AEfm3F7aTLJc7JbvKf6bbuoyeNu0/L9W4rtvB5mhmnhn+0neoZTPdQSnjsBGc9+9AHW0UUUAFeDeJn/4qfVP+vqT/ANCNe814R4mRf+Eo1TrzdSd/9o0gMvcKVV3dCKUomOMilRce9FwFVcAVIGptJii4EhFNIpc8UUAJt98UfIP4ifwoNFS0UmBZB/CT9TQHHZF/nSYY9F/SpFRyPu1AxvmOOm0fQUhMh/iP51J5bHrxR5Kj7zUANjD7twJyO+abPaLOpKBVk9P71TZVF46e1IJU7ITRr0E1cyJYnicq6lT702tqTy7hNkyLjsR1FZtzZyQHd95D0YCqUrkbbhBICCkn3e3sabKrRthvwPrUVWImE8flSfeH3WqhLQhzu/Cmu3btSyBoyQeD3plUUSRt2P4U+oAcGpgcrmpaGiWKQZ2npUu3mqn9KuQsHX3FS0WmAHPt3qyCqrx0/nUNSQx+Y3oo5NSyZOxNHhVMrdTwlM3sQcseaVn3t6KOAKjNK1xRXUOQwOelWV/ex1TZuafaS4kK+tOxdyyqbat2ku4lT+FQUxXMUoI6VLQzSHXFB9aQEOoYd6DWZaF3U0uwpc8VE5NADzORxgUxrg+gqLHNBXNMBWdm70zcemTRtwaQg0CDNFFFFgGMKZUv1oER+92PSqSJbGZcfdJ/CpRHcTpz8idzjk1bttuOg+lWdocYxT5RXM6e3SGFfKBx0OT3qo6k1oXA2qUz9Kon3pMLjEeSI+q+hq2k4l27CFfptPQ1VaoiCp3LU2uBrJLk7ZBsPuKuxhAmVI+uawob114Y7h6Gr8E0ZX905B7qec0RjYZPJu37lpMue+PqaXzP4en86Tbg+vvVXEOAz6E+tOUEdeajU7T1FShQ44zVJoBpRH6rgjuKga3UZYH8xVrCIOTioy6lvWnZAQo0Kjr83sKTIlOGxt9xU7RhuyikEJToAw9KkVijc6MjjzIW2t6djVDy2ifDdq2XnbJ3B0Xp24pDbrLGFaTfjkGgVjOjIzndUq/M3JxUj2qqc7SaRI1J4BrOVhoM/hirVncMx2N0qMRALzyaVFCHI4rJtFGmHwMU7OTVKKXJwasqcDPauinU6Mho6DwvqX2S9FtIw8mY4+jdq7mvKQ3pweor0bRbo3ulQTMfnxhvqOK6BGhRSUtACUUtFAji76OS/wBQdbeMvt+UccDk5rVsPD0ceHum3n+6OlQ6X4hsWu57SRFtZVmZd38L8nnPr9a6MHPfIrnhQitTWVR7IERY1CooAHYU6iiuhKxkFFFFMAooooAKKKKACiiigAooooAKKKKACiiigAooooAKKKKACiiigAooooAKKKKACiiigAorG0mw1O11PUJ77UftNvO+63iwf3IyTj8iB+FbNABRWNo1hqlne6hJqGoG6hnk3W6c/ulyeP1H5Vs0AFFY2gafqlj9q/tTUftnmSbouvyL6Vs0AFFY3h2x1PT7WaPVtQ+2ytLuR+eFwOPzzWrKrNEyo21iMA+lAElFUNGt7u00uCDULn7VcoCHm/vck/yxV+gAooooAKKKKACiiigAooooAKKKKACiiigAooooAKKKKACiiigAooooAKKKKQBTWUMCGAINOooAw77QoXzJbfu2/un7p/wrDaCe1mVJUK8jBPeu4rnNX8Q6fCy26qLp2YDP8K++e/4Vz1KEXqtDaNaS0OhH3aWsnV7O/uzEbG58naPm+dlz+VZ39j67/wBBI/8AgRJ/hXTHYxZ1FVruztr2Py7uCKeMHIWRAwz9DWD/AGPrv/QS/wDJiT/Ck/sfXv8AoJf+TEn+FMDU/wCEe0X/AKBFh/34X/Cj/hH9F/6BFh/34X/Csv8AsfXv+gl/5MSf4Uf2Pr3/AEEv/JiT/CgDdTT7OOVpVtIA7HJbyxkn61Sg8OaTBNcSiyid7iQySGQb8sfTPT8Kz/7H17/oJf8AkxJ/hR/Y2vf9BL/yYk/woA1pNE0p4HhNhbqjY3BEC5x0ziqreE9Addr6ZEynsSx/rVP+xte/6Cf/AJMSf4Uf2Nr3/QT/APJiT/CkBdXwnoI6abEP+BN/jVmDRtNh8zZZw/vVVH3LncoGAOayf7G17/oJ/wDkxJ/hR/Y2vf8AQT/8mJP8KAJ5fBfhubLPpMGf9nco/IGrOmeHNI0ic3GnWSwysu0sGY8fiaz/AOxte/6Cf/kxJ/hR/Y2vf9BP/wAmJP8ACmBt6lcTWto1xCgk8v5nU9SvfFQ6frdnfABX8uT+45x+XrWNcaXrMNvJLPqf7pVJb9+54/KsS2tp7mTZBGzEeg6UgPR68I8TH/iqNU/6+pP/AEI17Fo1nfWsGLy53jGBH12/jXkPiXb/AMJLqf8A19Sf+hGkwMsDNOApQRSFhSAWkoopgFPWo6cpoAUilD7V+6PqaKdGrysEjTcxPAAyTSYxnnv/AA/oKAsrnlsfU1Ll0+XADDrx0qNyx+8xNRYoeqEZHGPc0D5U2s+eeMCoVpzD5aAJD5e3uaQMg/gH40nOwUAUFDt7fw4H0FTLuI2n5weoPSo4l5zUw+XOO/X2pMlxuUbvT1OXteT3T/Cs3lTgghhXQDjp1qK4torlefkk/vev1oUmtzNpozeLmLB/1q9P9oVUPynB61YmhltZQHBBHQ0+RVuYt6/6xfvD1q0xJlM08N0pvanKuSKsofTkbb3oZcU01JReVt6gj8asNiOMIOp6mp/C+mG+uJ55OLS1QyzMenHIH41UZtxJxjJ6elQ0LdjlpGoWlagogbrTFOGzUknSou1MDThfegP5090yPrVK0l2tsPer+eKljJbN9p2NVphzis4ttOR1q/A4mj/2qzaKTEc7VqL71TOvy89RUYHFJFEbYxxTe1PYUgUUCEGCOlNYY7UpBBoPNAEZpM4pxFROcVQiaP529qu267hs9aqQcR+5qxG2zmtYIymxJo2t5enBFPku1itXkJ+6P1qzvS4i2P17GsHWiYYfL/vHp602hJleTUZZ3jkYAbOoHc1bJDqGXuM1lWqF22EdTxWhGdmY26dqhxLTHUhFOFI1QBCyD1pqkr0NSEH0qMjHamBaiuzwsvOOh7itFLlHA2sCfyrEpAWB4NHKM31kRm75+mKHaRDuTPuKyYrt4+CA6+jCriXyuvzbgfzpJWAslxIvzA5pvcelCSRP9xwW9DxUm3HqM+1U2A5GFOYE9KYEPapF3LQhkEiH0pgDD7pq0w3CoHTn5TTEJHIdx8wYBpzKOWGMe1RhsNtZc0oGD8uQD2NZzjdCQoNI1A60prmKEQ7SDVoncoPvVZeSBUrvsAHvVRCxGz4Y9RzXa+Ab7zLe5s2bJjYOv0P/ANcVw7ncc+taPh6/OnaxDOTiPO2TH909f8a6oS7icT1ikpFIZQQcg8g06tiBM5paqSvC0nlyN5cnVTnB/CkZr5DtjjilXsxYqfyxQI80n2rq157yOQf+BGtXTtbvNOIVTvj/AOebnj8PSsWRt2tXi+krj/x41aNIZ32ma7Z6jsRHCTH/AJZucH8PWtSvGp7za7RsrqwPBBrW0bxzeafIINRBurYcBv41/HvTuI9PoqhpWsWGr2/nWM6yKPvDuv1FX6YBRRRQAUUUUAFFFFABRRRQAUUUUAFFFFABRRRQAUUUUAFFFFABRRRQAUUUUAFFFFABRRRQAUUUUAFFFFABRRRQAUUUUAFFFFABRRRQAUUUUAFFFFABRRRQAUUUUAFFFFABRRRQAUUUUAFFFFABRRUFzcw28e6Zwo7epoAnqlealb2gxI2X/ujrWNf63LJlLYGNP7x+8f8ACshmLkkklievesZVOxtGi3uWda1Se7hCE7IyfuA9vf1rnpdu+L/fGKuXx2yKG5wtZs0m65hX0YfzrC7b1NXGMVoesp9wfSnU2P7i/SnV2LY5GFFFZWqa5baVd2cF2kirdv5aS4+RW7An3pgatFcve+NLSyvBbT6dqYdpDHGfsxxKQcfL/e/Crdn4lju5vLbTNUtVCl2luLVkQADPWmBu0Vy7+PvDKoSNSDNjhRDJyfT7tV7D4i6Bc2++6uGs5MkeW6Mxx2OVBFIDr6K5678X6VBp9tqEcjTWs9x5AkUbQrYOSd2OOKS/8ZaRa3lnBHd2twlw5V5Y7hCsOO7c0wOipaw4vFOlz61BpdpOl1JKhfzIJFdFx2JB61a1zVl0bTXvXtpp0T7yxDJA9T7UAaNLVWwvIdQsory2cNDMoZSKs0AVr2zjvYhFMW8vOWUHG72NSwQRW8YjgjVFHYCpaKQCV4Z4kB/4SbVPT7VJ/wChGvdK8M8TP/xUmp/9fUn/AKEaTY0Zm3PalEdAZzSHPdqi7HYdtx70hFNye3SkyO3JpoVhc0uaTFGKsCUciprG7ksL6K6h5eNs4JOD6ioE+7ilNICy58xmY9WOTiqzYY7Vx780m3d953Pt2qQqoj2Lhc+lQMZtwRinMuSKYDt4NSK2WqSxGBwMUDlsd6czfNxSr98Y6mmA9eGzjgU7PU55NISRkEUwYA5NICTNQzSgcDrTJpsDAqtkk5NFhMtJOJV8u5Xenr3FV5rOS2bz4Dvi/ve3vTalguZITgHKnqD3os1sZSj2K08IcedEOD94elQIGV/Wtry45/3ltw38SHvVKWAxybsDB/SnGfRkRlbRkZTevSmQ28s9wlvEhaSRgqKO5NWB0rv/AIceHgx/tq6T/Ztwf1b+lWaXE1yxTwz4Jg0+M4muZB57A8scZP4dBXCjk133xTf5tOi9A7fy/wAK4FetKxSHjgUhNB6UwnigYx+ajPAqQ81GaQCDIYGtSCQPGD3FZdTWkvlybT0akwRoN1qS2lMUgHao+ppp+9moKNc4Zd3Y1EVwcCmWcu9djVM3t2qRkTL9CPUVG3FSsBkgcjPB9aY2OPagYxj0OM4qFmyx7ZqUkg/WoZCc0gEJNRucU8HNQzCmhMnV2VQfUVNHMCMGqqzbrfHXYf0qITR54JX61sjNovvLtOUNZerSmZ4gewNSSSMfmBG32NZ1xIXl3elUibE1mSswPpVp2/iHas5HK8ipTOcYpgaEbBgDT8AmqcDfLmp1fNc7WpaHEVG+KeWpjDNMBhpKWkNUIXNBptLQBIkjKMZqeG+kjOAxH41UyaTjOc0WGav9o5++o+o4qZJhuVjPwe2BzWIZMD1pVuGGOMj0pWC5vmTP+rO72BpJG+XdgjHXjpWIt027jA9BVy3vyJCJC5BHODSbYFrzVbocmm7xvKt6Z60p1C2VuI3OTjJAxTrjUIY8LFgk9Sozii4yORmj2+hqaINJ2/E1ALuaUjy4f++ugqRRO/zTvgf3VrKUUMn3xxEgnc49O1Qu+70/Cn/ypm0DoKEkirCdqWiiqEejeDNV+3aWIJGzNb4Q57r2P9Pwro68r8Nal/ZusRSOT5Un7qQD0PQ/ga9UU5UGuiD0M5KzK93bJcRYdAxHTPUVkpBqFuDFBeSCNTwJUyR7ZxyPet/tSVRJ5Ey/8Te/b/pu/wD6EauDoKmvdPaO+upI/nzI7Ed+SaiTp/telZwmpbFuLW5laxBhhKnfg/WsZ2+aurmi82JlYcHmuTu0khvnibG0frWiJI4bya0uhNZXDwTDoynFd9oHxHCslvr8e3oPtMY4+rD/AA/KvNbg7WyFqNJ3Awy7l96Yj6PtrmG7hWa2lWWJuVZTkGpa+f8AR/EN/otwJNPuHRepjY5RvYivUPD3jzT9U2w3pFpcnj5j8jH2Pb8aAOwopqsCBzkHoadQAUUUUAFFFFABRRRQAUUUUAFFFFABRRRQAUUUUAFFFFABRRRQAUUUUAFFFFABRRRQAUUUUAFFFFABRRRQAUUUUAFFFFABRRRQAUUUUAFFFFABRRRQAUUUUAFFFFABRRRQAU2SRIkLyMFUdSTWLqXiK0s2MUTCacfwqeB9TXKX2p3OoMWmkOzsg4UfhWbqJGkaTkdFceKYXuza2CGQjO6U9B9B3rNuJ5JH3SyF2PrWJov/AB9TMOWxgVrNyeawlNtnTCmojDnktT0XcwxTCewqePhWY9hUGjMK9kaW6kHRQ2ODknFUT8t5H/virmzDMfqTWfu3Xif74/nTjuZS2PZI/uL9KfTI/wDVr9KfXZHY5GFcd4s1LULHVtLi+zWM9jczon75Czq+eSOcDjpXY1x3j+x1G9/skaVbmWeO63hv4UIGQW9qoRymtwG+8U/aZLPxGLRSxby4/mVug8vjAXgVpeFHu4PFjo0GuSWE0OxDfKTtbgkt2xwaqX9tJL4uv01LTtR1EpFFn7G5UBto3HtwTVzwnA0HjgCGw1GztzaN+7uyW+bI5zQBFrdvdRavcpbx6qkYc7Vg0qN0A9j3FUfLv/TW/wDwTxU+9tZJvE+sGbQ9S1BPO+RreZowox7DnNVNWsGXTpWg8K6vayADbM9w7hee4xzQB0PjVp7XTNFghsoJIJZU3ieNBucjoVI+UnnJHSubuHmW/wBQtpNA09X2JHFHEkb+S7fdIIGWz75xXTeNLaS48L6Cn2SW6YSxb4kzlhsORkdPrVHSIr/QrjVL628N3cAnjjitrckyYfPUknOM80AL4cnnstS01V07RmMlw1q89vE4lBUfOegH5DFd14i1G20rRLq7u1DRrGV2n+MngL+Ncr4ZsdZ8NX8FrdWxu4L8+Y7xgH7NKfvZPpimy6bq3ivxGRq9u9ppNjJ8sJP+tYe/fPrQBV+HWoXOm3h0bU0MK3iC5tA3A56gfX09q9JrmPGXh1tX06OWxPlX9n89uy8Zx/D/AIVd8KXeqXujRy6va/Z7jpzwXA/iI7ZoA26KKKQBXhniRf8AiptT/wCvmT/0I17nXhPibc3ibU/+vmT/ANCNTIaM9mxTNrN+NdL4f8Fajq37yZTa2/8AedeW+g/xr0XRvCmkaThorYSzY/1svzH8Ow/CkO55fpPhjV9UIMFo6xn/AJaSfKv6122j+B7HS0+16tIsxiXdt6IuPX1rtwvGOg9BXB/EnW1itk0q3kzJIQ020/dUdAfqaaiK5wGozi51K4uFAUSyswUdACaiXFRVIp+gqgJBikYUZpjPQAq0tNBAGfWpI/m9hUMaGHnnFSJFuYEnFDDJAzmpgAMCoLDyMHNKiEPuI6VJEdwOT0pssoAahgQs+WYmq8svAFEsvp3qDPrVJAI7ZNNVuaXbk0gT5qYh1IaWkoAfE7IwKkg+orqZ/D13LoNtqcY81JEyyqpyv+I965WP71e86Oqro1mvlon7lflVcAcdhUuFzOcUzx/QNGk1fWIrRciPO6Rv7qjrXtdvBHbwpDCgSONQqqOwFZ0OgadbamdRggMU5ySUcqpz1yucVrVST6iR5Z8S7jzNfiiByIoQCPckn+WK5BetbXjSbzvFN8c52vtH4ACsVaZaHN0qM9Kex4qM9KQxoOTTXwKUnFRSEk0wFopB0paANC2kLpg9R/KpHYDAqjbuVcH8/pV5grD61m0MdBMFcMK1FIZQ1Y6gAYHWr9pJ/AazkUWCFy3yAgjjnGDUKbN+JCVHsM1ZqOSPceOoqWMgeNW+43GMndx9agZcj3q0Rz83WmlfpTAqBSOtMkQsKsOuDkc01huGOlAFFW8pgcfUeopmU3fOuUP5irEqZ+oqua1i9CWiGdTCdocFexHeqjZzVtx/e6dvaoGT0q0zNkQNOBpCuKegzVCJIpjEcjkdxV1Ssse+I/UdxVAxHHBpqGWCTcpIqWkxpmhlu/NG7NMju45eJBsb17VMU4yOR6iotYZGaSpdlIUoAipN1SFKjZaAGl6YWyKXyyaPLxTENpc0qxOfuqTVqKwJwZT+ApOSRVinVmK3mcjsvrmraW0Uedq/nzVmJsja2OOlQ5J7DsVxZkDiQH606K2CnL4/CrW30pu31zUXZVhVIHRcCpFI7daiIPQHOKVWOcjigZNim0uc0mKQDSKBxTwKQrTGNr0rwnqv9o6YI5GzPb4R/wDaHY15rWv4Z1Q6ZqyOcGKYhJM9gT1/CtIS1JktD1KlpBS1uYnCXij7VMyHnzGyPxqsxST745/vDgj/ABqxefJezP1HmNkfjUckYdd68GvIU3F3R6KgmtStMgC9Tj2rmdfjw8MgHXINdWu1vlbGRWdqmjvqMP8AoZO9TkKRwfxrrpYlfaOepStscRdD5c1U7V07+EdflzmzVf8AtoKpzeENfiUk2DsB/cIb+VdPtYdzBxZjqKeAYzlencUPBc20hjnhkRh1V1INTPDJGm5kq00Kxv8Ah/xhqejKscbfaLUf8sZDwPoe1en6B4o0zXUAtpdk2OYZOGH09a8LG5TlfyqxbTbJV2syOOVIOCD7UwPomivL9B8d3loyxaqDdQdPMH31/wAa9C0zVbHVLcTWNwkq9wDyv1HagReooooAKKKKACiiigAooooAKKKKACiiigAooooAKKKKACiiigAooooAKKKKACiiigAooooAKKKKACiiigAooooAKKKKACiiigAooooAKKKKACiiigAoqGaeOBN0jhR71lXWqtJ8tuMD+8etRKaiVGDlsadzdQ265kcZ/u96yLm/kmjcD5FAPAqqzF2JJJJ9fWkkBEUhY8BTWEqrZ0xpcpyDNm6l+g/rQX2xemBVXz1WaduqjAyOaaszyI5KYQDjPXNZtlo1fDzbTO/c4GfStMnmsvRRssi395sVoZ/OkzQV2w3FE8m22k9+Pzpi8tk1Devi3A9WpCZnzvthf3FZsJzdRf74/nVq+O2Ie5qpaDNzF/vj+dXEzlse0x/6tfpT6ZH9xfpT67FscTCiiimAUUUUAFFFFABRRRQAUUUUAFFFFABRRRQAVg2vhbTbfVZ9Skj865llaUF+QhJzwK3qSgBKWlpKVgMfxLrMOhaW90/MjHbEmfvN/gOteLXdxJdXD3Ezl5ZWLOx7muo+ImrPea99iAIitPl+rHkn+Vck1MYUUUUAKDS9aQUooAcoBGDT+gA7VDnk1Ir7sL3pNAmAb5x6VZWUOu0jDDofWqwHz4qVh8voexrOxdyzI6iDP8WKznnypFI8rsMZ6cGoaBjj0o7Unal7VSEApaaDS5piA02lNJQBJbLulVVyckAADJNe+aXF5Wm2se3bsiUYPBHFeHaDDNNrVpHCuX81SBuK9D6jpXvajAoFIWo55FiheRuiqW/KpKyfFNwbXw5fSKwVvKKqfc8UyTxq8uDd3k1wxyZXL5+pqCgjHTtxSUiwbpTW+7S54qOVsLQBGxzxSEGlTGM+tSEDbxQBEo7UucU3OGpx6UAJkg8VetnEq89RVPtSwOYpM9jSaA0uBT0YqwIpuQQGHek5FZ2KNaFw6A0u5c46n2rPtpNjYYkg9q0kI2ZH5Vm0UmMZd56YH61E0WKsUlAyrgD73I9M4quVz9RV54t/3c59BVZl2mgCo4PNV2BBq8VHNVpUxVJksrMflwduD0NQshT73TsanKDBH5UwMV4blfQ1aZDRVkUmkQHdVzyo2GYmyD1Ruv4VHtGfl7VdybCpxUhQP1pEqULxxU3GVpLbP3f1qNRNAcox/Cr2D/FTSB6UXAihv+06/wDAl/wq2GicZjkBqlJAr81XKPEcqT9RVctwNTbSeXVO3vf4JP8Avr/GrigON24Fe2KzcWgFCD0z9Kcqqr/NHux1FSxMgYLikcDec5601qA4TiRsABMdFqbtVTbk88ipFkIO08is5xGmSmm49KkC5HFO2e1SkMfH88fTpwfeg+lLGrqPTNLjvQy0MHtQV9OtL05FKBnkdO9IYimn5BpjDPSgHnnrQA8cUtJxQaYDSKQU8c9aQigDv/C/iGCfT44b2dEuI/k+Y43AdPxrf/tCzyR9qhyDj74rxiV2DELwKtWDMYCePvensK3jLQycTqLpw13cZ4PmNz+NQ5wcockdV9aXUQVvp27CRv50/TYfPuhngL96vIk7anoR2LFlp6S/6RLkR9QO5q39pCHZAgRfaob653S+VHwq8cVGh7VhKTZD1LiyufvOakV27MarK2amRsGo5ieUWaOK4TZcwRzL6OoNYmpeF4J0Z7F/Jc/wNyp/HtW9weaeOlaQrzg9GS4JnjOoade6RcGG+gZD2J6N9D3qAFHHp/SvaL20tdQtmtb2FZImHRuo9wexrzXxJ4UudGJurXM9mT99eqezf416+Hxcauj3OaUGjFSeSPhsunr3FTQatdafciaxmaKQdGU9frVeI74wcUGJT0GD611mZ6V4b+I6zhYNcj8p+n2hB8p+o7fhXoEE8VxCssEiyRsMqynINfOsUQVslsn0rb0jXNR0RzJZTHb/ABRtyjfUUAe6UVyGgeO9N1TbDe/6JcnjDH5GPsf8a60c85yDQMdRRRQAUUUUAFFFFABRRRQAUUUUAFFFFABRRRQAUUUUAFFFFABRRRQAUUUUAFFFFABRRRQAUUUUAFFFFABRRRQAUUUUAFJRWdeatDbfKn7x/QHgfU1LkluNJvYuyyJEjSSMqooyWY4A/GuK1f4g2yT/AGXSF+0OTgzN9wfQd6Z4jvZ73TrkO5C7DhRwBXmVm5S4BB74qee60L5OWSuenabcXF6vmTyF2LHJ9OK0G4bn0rJ8PSZsmAI5Y8/hWm2c+ua5ZbnYifd8oKj8ap6i+LSXnJ2Gp1b5ME1U1JwLWUAZ4qLjORt4j5Tbh/FU1yNlsQo7UqcKee5pl6T5IGepqyTW09PLsYh6jdVnPeo7P5rOI7ei4qT1qWWC9DVXUOXVfbP61bA4AqhdPuuW9uKCWZGoP+8VPQZqTRkEupQqeVU7j+FU7mTzLl27ZxWjoSZui/HBAH51okQz11PuD6U6kXoKWutbHEwooopgFFFFABRRRQAUUUUAFFFFABRRRQAUUUUAFJS0lABRRXE+JfHEVm72ml4muBlWk/gQ+3qRQBwHiNJovEF8txuL+cxye4J4/Ss2pJ3eaV5pnZ5HOWY9SaYtAxaKKKAFooooAaRR0ORTqaeKBEyndzTpn+UYqurEU6TleKlopMrk/MT+dP8Aaox0atTUtEv9LsrS4uYiI7lNynH3T/dPvjmpsVcziMUmacxzTMUkIWlFJQKsBTTTTqQ0AdV8OlkbxNGys4ARt21chuOhPavYa8o+F7R/25NukQP5OFUsQTzzgd69XoJYtcL8Tb1U0y3slPzzSbzz0A9R9T+ldzXlHxJuBL4iEI5EMQH4nmmwRyQpDSimtUlAKgkbPFSs2Fqu/WmALkDPpT1f9aFXK4phUg49KABjzT1ORTCRilRh0oAfRRSUAXrGbcDGevarR+7WQjGKUMK0wwePcO4qWNDlPcdRWhayb0BPWs2NCvJ71Ygfy5PaokhmkaSkB3DIorItCE/59KYee1SEf59aaRSAhaMEZHWoWi+U7hmrRGOaYeW9qdwM2SEjkdKgaPcMYxWwyr0xmoJLYnkVSYrGQAYz83505tzYbcDirckBPDDiqzwNHynI9KtMhocke/8A1XJABZe45xx6/hTozjj0qIH1yrDkEdqsi8jnYC6U7v8AnoowfxFNK4heGpjRntV6GzEo3QXCOPQ8GlNvJG3zqPzp2EZRUg04Kp+9Vya2LcrxVcwsvAouIqzWit80fX0FRW8zwSYP3e4q8pKnkc1Wv4cp5y/jVp3EaEbD5ZAMg1Owjl5DfWqGmTDywrnjpV6SEfeiPy0mirEWMcUnWl2mjaRQMkjmZfl7VP5pbvVOnBsVDiFy1ub+8aVW3D6cH3qsJKmgU7S3vUNFJklGcdKU03pUFj8Z5H40hFIDg+1O6/SgBuCKcOaXrSZxQAEYoDetLnPWkK0AMki38g1ZsInELDafvensKiDN0YVo2CgwtyfvevsKEwNq8/4+5unEjZ9+as6UI47ae4Reox1rLluPOv7qPjeJXGPXk1o242aNcfWvNq6aHXf3SmCd2T3qZGqrGTgZp5mC1lyN6Ig0kXMYb3xS7pP+eZUY5z3rPttUllElvHAp8o5JJwwp6XEkkitKdigEfN2rRUGtxFvz2HUAL7HpToryN5fJzh8ZA9RUCru/2j3Peo/KzINvXtxScEM184UGpPkaNgyK6MMMrDII96zYZjGdpkyfTFXkKt91h7isdYO6FKJwnifwv9g3XunITaE5dByYyf6Vyp+WvacDBR0DIw2kdQQa8z8Z6C2l3S3NoC1pIflP9w/3TXqYTFc/uy3OWpC2qOfHf1zUzMu0gnnFQpyeeDSSMucHivSMiCbhAR6103h3xrqeimOJnNzajAMcrZIH+ye1cw/LqvbNOiG65RfcUnsUke+aN4h0/WYle2lCyY5ifhh/j+Fa4rxCNzEyspIZTlSOCK6zRfG1xblYdSUzx9BIPvD6+tZxqp6MuVJo9DoqrY31tfwCa1lV1PoeR9RVmtE7mQtFFFMAooooAKKKKACiiigAooooAKKKKACiiigAooooAKKKKACiiigAooooAKKKKACiiigAooqve3ttYQma7mWJPVjQBYqjfalb2MZaZueyryTXMP4w/tC7ntrCNokiIBd/vNnPIHpxVOSR5Gk8wksedx71jUq8uiN6dHm1Zp6hrM9z8sZ8uIjPB5P1NUc52kVED+7U/WnLJtAX1GBmuVzbep1qCitBmpjdaTD1U15nGP3uPevTbr5oZB6rXmsY/wBII9zXRS2Zz1fiR6D4VXbYn/f7/Stksdw+lY2gN/oZ/wB/+lakp+7WEtzZEm4VU1Nl+xP65FWUGF+tU79PNg8peNzDn0qVuM51Oi/nTblWLRp/ebArQ+z7FVYhjb1c+gpNqy31mFzxMAWPfHNW1YzNZXCwpGhyFGOP8+1Mx070Mhj69N1NlmRV64qGaEjHau5ugrCubobnkOBnJAqxe3UskTJbIzvg4AHU0aR4L1PUJFuNQcxR5yEzWkY3M5Tsc8ivLJtjQu5OcAZro9K02SEIblWjJOSO9dxpfhyw05BsQM/c461fmsoJ1QPEvyHKgitOSRk6qZbHSlpBS10LY5wooopgFFFFABRRRQAUUUUAFFFFABRRRQAUUUUAFQXt1DZ2r3FzII4oxlmPap64bxpqWsTmTS9N024aArtlm8ktu9l/xoA5/wASeN7rU1a307dbWjcE/wATj69h7VyBYE8dRW7b+EtfuceXp0iA95MLj86tzeEX0u3+269cJFGv3YYjmSQ+gPQUAcwaVRRjJpelAwpKTNFADqWminCgAPFMPNSUgxQIZgmpEBoGDTgcUAaHh7TbS/1+3gvJxDCTkg/xkfwg9s17Dq+lWuqaZJYTqBG64U/3SOhH0rxAHByODXrfgzWxrGkqs8itdQ/LJzyw7NQB5Jqmnz6VqMtjdDEkR6jow7EexqlXsHjfw4Nb0/z4I830AJjI/jHdT/SvIWVlJVhhgcEHrUNFrUbRRRTAKKKKAOx+G3/IyDrzE3TGPx/+tXrVeX/DONv7Vmfa5UR4JUDAJ9a9QoRDCvFPFk/2jxNfSc480qM+3H9K9nnkWG3kmPRFLH8K8FuZWnupJmPzO5cn3JzTY0Q0x/u04U1uTipKI3+6Ki61K/3ahXk0xEyHsKcVz1qMHBqQHNAxjR/LxUSKQ3NWm+7UOPSgAopaKAGt/KrVu5GFz8r/AM6r05T8o9jSYkavQUlJlZYlI7imeXt/iNQUX7OfI2mrBcehrLjJRgwrQWXcoOKzkikx5cUBwOtMJB7U3aO1TyjHlgTQRTO9SZyKLDG470bsUcj6GrCabfSqGitJWQ9GCnFNJsmU1Falc7D1FRG1VuUOB6VNPDNBII542RsZwwwaktYJrjcII2kK9QooSdxc6tczJbXGeMe9VHt2HfNdHNY3UMe+4tpI0zjLLxVb7MJXCBDuzgAdzWi0JUotXRggPG2VJU+oNWoNUkT5ZwJV9+o/GtZ9Bvz/AMus34oay57FlyGUow9aq7W4oyjLZkv9pQDLRO6HOMEVK0glQM8QYH+JKrQaPqMsYeOzmeJu6pnNR3GnTW8irOkkDkZCuNpIpk3i3ZMe+zna3T17VGdrpg8qwxxUsFpqNz8tsss+0DIA3ECi603UrePzbiymjjHVtpAqo7XE5RTs2UUgaB2hPQ/dNT2aXUMmGfEffnrVqPbKUMWGY8AfxVc/sjUv+fKb/vg1m7vYbnGO7IOGpjK38NIT5bFZAUZeCD2NWYLG9uIhJBbTSIejKpOaSUhuUbXZT2nvV22t1mT+nrUdyktiwW6hlQsMqrLjNFsb2/Yw2sLbQMkIMmrFzK1xZraNZRsJPrUigKMAVYOmXcMPmS28wVeSSpwKixWUty4Ti1dCfhTWFXf7Nvv+fSb/AL5qq6sjsjqVZTgg1Li0VGpCWzIqcKlWzuJIvOihdkGckDgYqHH+1xSHzJ7DhQ3+fagUH1/yKBjM+xqYT/uinBAORkcj6UymYbPv7UDJN6njqfStCx3+SdvA3f0FZLSp0/iHZat2E0vkHoPm6Z9hQosVyyZv+J/d9QRM+T/wI10lk3nabcp6c1yTXwg128jlUFHuHGccj5jXXaJEDHOR91xge9cWIg73OlPQy1Py1A+4XG6PG8jgHoTVl08uZ0PY4qlK2buML/Dyazo/EJm7Dkx7miVXIHeo5FB+8PwNQQztcyrEr8AfMRVy5tD5Y/eYx3rqkhFOMmFmWM54+X29asedtzu4bjcB7VU53/7S+nera+ZJEJFj3Dpk9R/iKylEZYms5R88XzLnII64qZQYbNpGPzxjdz3FVEuLi1jQZyJDgL1xVi6ju57MhNg3jHNZumtw5m9CzbXCTwJNGdysKS+sob+zktJhmKUYJ9D2NZmm7rJ/s8ihc9RW2h49jXFJunO6E4nlOseHrzSpXG0yxj+New9xWBKct9a9q1O3EkQmA+ZOvuK43VvDdvesZIQsMvUED5W+or18NjFJe8ZSo/ynBn71XNNi3TmRhwvSlvNKu7K48u4iPJ4Yfdb6GrlqgiQLjnvXbKoraGcINPUuBhj6VKikHdjA9KhTKgtjOB0qUyMVX1xXKzqSLdnfXFlcCa2maOTplT19c12Wk+MopFWPUx5bdPNX7p+o7Vw6qFiyfoPWo87js7VUZtETppntEMiTRrJG4dCMhgcg1LXH/D+R3tbwNwA64HpxXX11RlzK5ySVnYWiiiqEFFFFMAooooAKKKKACiiigAooooAKKKKACiiigAooooAKKKKACiiigAprsEXcxAA6k06sLxU22wj5IBk5x34NTJ2VxxV3Yh1PxNFCrx2P72T+8fuj/GuH1e6ur6QTXErSPnGD0H0FXWUFz16VTuVzG1c3tG2dapJIo6Q5j150J/1kWfxGD/LNdC0pebb68Vym8w6xazZwucH8eK6JyyzZHc4H86mp3LpPoW1BUMpPCmhWGMnpmmuQJG54Kg0L9w+nWskbMmm5gJ/2a84xi/dfR2FeiMf9GHutefXA2anMP+mjV0UtmctbdHb6D/x6H/erVZqxNAbNqx9x/KtYv/Ksp7m0diZHz3qO4kVEZuuMmo2kjj+aRtqgZJJrmp9YEl8r7SYFOAmcFh60oRbZFSaSLdxdfuy8zfKoP61JbvgWVx0VtzjP0xWBeXUt5J5jDag6IOAorp9LtFvdLsnlZwI0YBRxnLd61naK1M4ajzcSzvthQyFuwFadn4Xurtg944jj/u963PDlvDFZkpGAd5Ga2sgVVOmmrsVSo07Iz7DRLGwUeTCC395uTWiB6VWub2C3H7xxn0HWsS716Q5SBNo9TyapzpwRmoTmb8s0UKlnYD61l3GuIrAQqXJOM9qwGuJpyTM5P1NVpbhYcd8sABWH1lt2ib/V0ldnoA6U6mj7tOruRxsKKKKACiiigAooooAKKKKACiiigAooooAKKKKACkxS0UAFcF4+0DVdSuorqxQzxxR7TGDyDnkgd88flXe02gD5/mhlt5DHNE0TDgq6kEVGa9g8dJD/AMIteyPEjMAuMjkfMB1rx6gY3pRuoNIRQAu7mpV5FV+lTRNQBIeBULZzUxNROhJ4oEICe1OVj3pnIo5oAnzW94Jkkj8UWaxuVEhKnB6jBOD+Vc6prf8ABUnl+K7FuMFmX81NAHsteX/EXw6bW4Os2ifuZTiZQPut/e+hr1CormCK6t5LedQ8UilWU9CDSGj56NJWx4n0SXQtXltWUiBvmgc9GX/EdKx6RQZ5pFPzUuOacg+agD0D4alFu7hpCits4LZB98HpXdPq0DS+TaK91J38pcqPq3QVxfgDT7a6t3+0M74bcIJBhfZl9fQ16DHGkahVUKo7AYFBLOZ8US6mnh/UJneO2hWEgRr8ztk45Y8AY7AfjXkpOetep/Eq4MWgRwj/AJbzAHnHAya8sqWNDTxTM809ulROcUxjJD1qKPrSueaRetMRKOtPHNRqadmkMfmmNzSZOadQA2ilopgFFJRQBbtJuRGx47Vdb0rHzg5HatOGTzIwT94cGoaGOqazl3PsP4VC4+X3qIMUcOtS1cZrlCDzTSPSpYHEsYb1pWTByKkZX5pymnlaaVoGH8X3uvArYnu9U0fZbG6A+QEbQDgVjqPnQ/7QrU8SXMNzqMbQyeavlgZHrVR0VzmqJyqKLV0ULq7lvJPOnbfIBjOO1Ja39zYM/wBml2b+DgA03ymA/wDr0eU2z/69R1On2Xu8ttC3Nql3eweXPPvTgkYHWoEcxuHXhl5B9DUMUciP939amZT2p69SVSSVki9/bmpf8/P6CqDHdktyTSYP939KXn+6fyocmxRoqOyJ11XULeFYre4KIOmAKzr6e6v51kum8114BIA4q0y57Uwr/vflT5nYfsUndLULC4n09i1o5Rn4OBnNTXmpahd27QXFxujbqCBzVfHs35Ufgfyo53awOjGTu1qVhEsbqyfKykEGrz67rH/LO/kb28sVXKsf4f0pNj/3f0oUmgdCL3RmSQTTTM8hYsxOT6k1qWOp6pY2wt7e6McagkKADSeW/p+lNaMjtSU2gdFNWaHXtxPqDo9/J5rIMKSAMVLYXFxYsXtX2MwwTUIXjpUg4o5ne4vZRty20NKXV765haKaXcjDkYqh/F8v8PTFNB/yKdHPHG371QOeCRRdyeolCMFZI0v7c1T/AJ+j+lUJZHmcvKcs3JPvUxWF+jqPxFMMXoy1TUhQhGOysamj3qx6deW88yhWU+Wp7kg5rB/lVjY390/lURqZN2sEIKMm11GjpS/XpUZk64xx6nFRPKCP7x/Sklc1JmlVc+WN38h+NV3kLfebj0Wm7nYHPA7CgLjrVqNiWxuOPlrR04fuGz/e/oKzieeK0NMI+zt/v/0FaCKeofNrV515uZAP++jXd3FydF0OKY/fG0EepPX9KpW2jQJrU82Czec7nPQck8VD4tSe7ENnAGkZeSAO5rgk1N8p0bIv6mqmWO5i5jmUMDWLqKOhFxCpLDjArbsbZ20cWM+0TRLlV3ZIHvVAjPDdRXIm6crDvcZ4ekQAhgRIxzXRtbo8XDPuPvmuatIsTu+89fWtqGZIwNz/AJmuxNMCOezaPDoeR+tXbdxLp+UyGQ/NTEuAz8gFT09qmhCwyNGR+7lH600kmMrlFE0X+y/U/rU2pTPGRs/1ecCkeMJjzN3tgcGgstxD5L8OOQKyrqy0HHcrTv59i0sfMkRyD6gdRVnS7tbiPGeQOKjt4PJdkZflcHOOlUNOu4bW4VH/AI22qa4Zx5kWdE7KkbNKQEA5zWAdhmZY33LjIPYg9KpeKdaXedOgOT1cg9Paq+j3RwkZ54wDVUqUoxuyVLWxpzQpKpSaMMp7EcVh33h7q9m3I6xt1/A102CetMeLac9a3jNxKcUzitjx/I6lXHYilwNymupubaG5XEiDP97uKxbvT3t8sn7xfbqK1VRMXK0UiQQRj2HtSxpkbsdOPrQACwGcZ61OqhTitSWzsvAGfst5u/vr/KuurkvAn/Htd/76/wAjXF60zf29qP7x/wDj4k4B6fMa6Yy5Yo5ZR5pHsOaWvDtzu6qhbk45Y0ahFNGgbzZOeg3HpVKpcThY9xor51aWXdjzHA9cmlkkkTA89/U/MarnJ5T6Jor508+R/n8xwR/tGl+0zN993x3+Y0c4cp9FUV867pOqyOR67jUfmP3aT6q5pqQ+Q+jqK+bjIe08oPuTQjZYbriQjuATk07isfSNFfOc15HJjyoGjwO8rEmpY7mZIQ+xzzgbnOKLiSufQ9FeCwzarfqkRldIAfur8o/H1roUsFS0ETuzZHPJrKVZRNFSbPWaK8MvdCuFJa2nfHoWNZMlhqMWd3m/XJqo1YsTptH0TRXzkXv4fuzTr9HIqVNU1ZOl5cjt981XMieVn0RRXzx9p1WY/wCuuW/4Eav2Wl388gaaSRV/2mNS6iQ1Bs94oryZLKWzTdbyMf7656+4p2+Z03bj9STWTxC7Fqiz1aue8Yf8g+D/AK6/0NcXbK5v7bMh/wBavGTzyK7Pxjxp0H/XT+hqvac0GChyzRyo65NVZ1OCB3qwmGXk1HMAenauZM62c3qOVWKb/nlIM10yOryRn1Xiuf1SP9xMn41p6dO01hbz5+ZUGffsf5VpNXiZ03aTNNfmiT8VoTI+VqZnaze53D6jrStIoOf89cVgjdslJzbr+NcHfjbqsnu2a7dHzB+dcTqvy6pJ7EV0Uepy1DqvDz/6G31H8q1N3+TWR4aSaW2I8l1yRtYjAP0qXxL51l5dr8y+Yu5j6jpgVnJ3nY1UlGNzO1nUftMvlRH90Dzj+I/4VmCHcFZgakChDmTOB0GaGuAxJG4844FbRVjlm7yuLGuQw6fWuy0NWj0iDdkbgSD7ZrhvNDP8pYetei6an/FOW6t/CAw/GsMTK1jWjua+nX0dpburKzHdkAVFdapcXHCkRj/Z5z+NUVPSj74YDhh0rF15KNjo9jG9yrPI2cHmo492/wDCrQiyvzde9MaMheO1Zc1zSyWwnase+3m8RufLV1GewOa1LmfyLZ5eMqvGfXtXBM17c38T3PmuXkB284HPaurD0+Z3ZhWnyqx72n3B9KdTU+6PoKdXonAFFFFABRRRQAUUUUAFFFFABRRRQAUUUUAFFFFABSUtIaACiiikBk+J7N7/AMO3ttGu53iO0epHI/lXhx+9t9K+h68e8fabFpviJ2gYbbpfN2AY2HOCP0zQBzFFFFMYhFORsUYzSYoAfuJNKxKrk0L6mmvkn2oAbnNGaMUYoAWtbwuSPEmnYx/r1rJre8GJI/iG3eO1kuTDl9iYHOMAkngDJFAHtFVrq8gs13XEqRr/ALR5P0FUxBqt2M3U6WiY/wBXb/M4+rH+gqa00m0tXMiR75W+9JKS7H8TQBz/AInsm8UaeLexs5NyNvjuZRsUY6gA8nP0xXk80bxSvFKhSRGKsp6givojGK86+I/hveh1qyT5x/x8qO46Bvw70mho85JohGWpgNTW4+akM9Y8BxT2+m+VcRyxscOgbBDA85U+nqK6+uS+H+ox3OjfYmbM1sSMf7J6YrraCGcH8UpV+zWEH8XmM/4Yx/WvOTXYfEu5EuuR26n/AFEQz9Tz/LFcaTxUspDWPFRN0p79Kjc1QyF+TQnWkP3qVetAiQU4UynLQMeBTsUgpwoAiPFApXpooAWkpaSgAqxay7JNrdz+tV6KQGtIfl4qIjBxTLeXzIQP4l61I33cdxUjLNjP5b7WPymtUYZc1z2SK1rC43psbqKloaZYZT2phFWAM9KYyelSMhApGT1/WpkX519citXxT/yEI9vTyh/WrS0uZSqcs0jHjbavzL+PrStOF/hqSG1nnTMMbSY6hRnFE9pNDHunhdATgFhig19ur2uRC5U/wGnCaM9eKijhZ2CRqXZjgAd6sNpt6q7vssw/4CaTTYOukJvU0blqKJlP1q0ljdyIHS2lZT0IU0uVsTrJEW9fejzFolieF9ksbI3owwadDbSzkiKJnx12jOKLMftla9yPzVo81fSpZ7O4gTfLbuq5xllxVdImkfaqEsTgAd6dgVVNXTH+clHnrUn9mXv/AD6S/wDfBquUweRRZ9QVZS2ZJ5qe9J5iepqSPT7uVQ8dtIyHoQpqKW1lhbbMjI2M4IosCrJu1xfMj9TRvT1H5UyK0nmLeRG8m3qFGcVJJY3UMe+W3lRfVlwKLC9rG9g3J7flSHyT1AP1WoRHubaudzHAA7mrH9mX3/PpL/3yaEm9glVig3IPuhR9AKRplX/9VQ429eP6VOlldTJujgkdfUCj3gdWKRsaI6tYag33/wBzwMexrknu2Y/wpu7Dk1YvWvdLH2eJp4fPX50xjcvSsv5Y+H+8ewrR2asc1OLUnJPcsBsqdhG/3qWORSuPlEgHzc5qou88LwKlWMAls896nlN7ksy5+65BHoetMBbHWikNAC1o6Z/x7t/vf0FZZatTSm/0Z/8AfP8AIVQHotxbxWUksjNkkl2z2HWm6eyi08xlBeUlunY1V19pJo5UjyXckcdlHWqsV7Jb6VCkaqs5BVSwJ6cZrkocqbkazu0kPl0n+ztROowyblwQ6u3OO+DUeoQKCtzBhopOc1SZJbgrLeTvNIOhbgD6DpWlZTow+yTAFJOFz2NcmJalLmRrCLW5z06zQzBlb905+b/Z96ssjL8yngjnnrV28tTBI0Lj5T0JqisjWaYmy0fr3H4U6U7rUe2pZtZGXHb61sNMDAjfxIcH6Vhfb7UxcyKPTnmnRXrSGO3Rx87bd2elbXshXNGPVBG00e/+DcoPQ+1UxNLPeKXAVnO0bTgD8aRbBrbUh9pXcCuBjvmq+ClyyyIePugjris5yvoKLVzRn1CdN0JkU9s4zkfWsW/jkNqXgIWRPnVgMmnveRtIgxt3HaSRx+dLdTBVAiG5jkYAzURS5kay2OViuTPcNLNl5ZG5rXtpcINnHFYMYHmsyjnceD25rUs2ITntzXTUimjCL1OrtbtjCGY5PQ1pJIsiDnOK5zTZtxKHoeRWihaNvlOc9RXJLQ6Y6o0XhRhkjB9RVOeJhnIyPUVKk5PtUyurDqKkow2sI5WJA2k9x3+tUbiCW1bEq5U9G7Guilth1j4NQTRGWBo5B8xHH17VpCdiZRvqafgH/j2u/wDfX+RrB8ZWP9nRz3caqHmuWOe/JJre8AgrBeg9nUfoao/Edh/ZIXrmfj8jXpxV4HDJ2kcfZasqEJdoNueWCgECrHiG+t5LSKOylV1k5Ygcgelc7Gp++2MDrmq+5hISMVKiK5ZaNRLlh8nr6UjqkgOMex9aYtwQuHx7+9Sl4mAeJef4hQ00MrmPaCPShcq241I3z5JzihYyzAHAX1NO4CKy549efepiiSdB+FRqkasQTzUkbCI7gcnqKTYJ2G/YGf7iMfoKmh0W+OHW3lOPRTXR6X4hG1IZUjjbHDBQM1sm9uCOH4PpXLUxE4u1jVJM41dJ1LcP9Dn+uytLT9HuGz9rtZcLyNymttru4/56tTDe3H/PVqzeIk0NQV7jUthGBiMqPpUy/lTF1K7H/LTP1FOGqsP9dBG/vjFZ+0ZqmSrFn7xFEigL60+K+0+X/WI8J9RyKseSsozBKknsODVKY7ozGgifl7ZD7las2mhxXMhRUgjIGRletK++M7WDD6inR3DxSJInDKeDW1OSvqZzWmhb/wCEchhba97CuOwWrS6Bbj5num464FK2pWE7eZNAWfHOKG1y3Tb5ds/HHJ610XpGNpjbrQ1Ft5lnKzMBnB7iuflj8li6cg/6yP19x710B8RlP9Xabfqax7m6F3OZDCEz1xWVRw+yaw5uo21jQ3du8WdvmLg4966Pxj/yD4f+uv8AQ1zlqrrqEMlv90uu9D069R710HjVtun2/wD12/oaul8LJl8aOTHynFRyHOaUvnmjGUzWZuZd6u5m/wBpcU/QH3aaUHO0lPpyKddDkGoNAbypbqH+64NabxM9pG8zK2f9kc1Xl+5/tf5FIvyoJN3OOc980h5X+dYGpPEy+Ufrim6Xo8E13LdTRLLK8mIwRkKPpSQ7pH8tfauy0+xS0iGQN5H5VNWs4R0IkluyW1slhRWcZboPaqHiawgv7AoInkuEyY9vX8T6Vp3DyGLZEuWPf0qq0YZstcLtHYck1y0XUcuczavucfZaMIJw15882Pu4wB/jWpp+l2mzyfKjj8ty68feb1Nbj2yOzSupZiML7VVlSO2IVXO7pnPSu58z3G4q1kczJ4WFzqDzf6i3LEtxy3Pb0zXRyKIbGKFeAx4Hoo4FFo+LiUNLuiRQzse1VJ7hrmZnXhRwo9B2rCfNKWo6UbMXIAyD3pYX3SMPSoMHBB70+DIcZ71mzqLP8VMuW8uMyfwgc1K67V3CmlFuICCPlPBqUBy2r3sk8XlDADHoPaorBSJlb+6QB+dauoaC85VreZVI7MOtS6dpX2eWPz2DHdnC9M1206sUjlqQk2eip9wfSnU1elOr0EcTCiiimAUUUUAFFFFABRRRQAUUUUAFFFFABRRRQAUhpaSgAooopAFeffETRb6+vILuytTKiRFZCmMjnPP4V6DWN4suns/DV9NGwVvL2gn34/PmgDw/BBxjBFGSKkIzye9NKA96BjAxp4AamlCPpT0wKYEgXgUjD5TSg0jN8poAjooooAdXonwtt8x31wQOqoP5151XrPw7sJLLw95sqlWuXLhT/d6D86AOtooooAKZJGsilWUMp4IPQ0+igDxDxnoP9g6yyRA/ZZyXhPoO6/hWPb9a9w8S6JBr+mPaS/K4+aJx1Vu1eQ22k3gvLi0eMrPbhtyHuRyQD9OaVh3LuianLpOoxXkRLBTh1/vKeor1hdWs/wCy11JpcWzKG3AZx+VeMqMcYqbz5vKMSySeXydgY4/KkIg129bUdXurvnEkhK56he36Vmk+9Pc5JqOpKQMeKiJ5p71GetUAxutInWl6mheDQIfTlpBThQMeKcKYKcKAGPUealcVCaAFDUuc0wjFIDQIeaAaaWpRQMnhby3Hoauk8ZrOHPFXIH3Lg9RSYD85/ClExhG5etJ0psg3ABe5qQNC0upJM7mOQOgq4jsf/wBdZ9oqRAhV3HuR2/GriFu2MVLKRMHIcN0KnIqe5nkupRJKcnGBVR2Y4FAYg7s8ilzdAcU3cvW2oXNkG+zyld5ycAGi71K6vkEdzKXUcgYHWoOtIUq1LSxn7KHNzW1Eglkt50liOHQ5B9KvPruo42/aO2D8oqiFxSMvehOw5QjJ3sRR8Oa1YtZvo4o445sKgwPlFZnendKL2B04yVmT3V1LdTeZO+98YzjFT2d/c2gb7O+3f1wOtUM0ZpdbjcIuPLbQ0LvUbu8h8m5m3JnOMAc1Whd4pRIn3lbOagzQHouJQjFWSNb+2dSb/l5/8dFZ5XJJPU0A8U4GlzXEqUY7IuwanfW8Kxxy7Y0GANo4qveSz3TebOd7DjOO1RyDzEO1qrbZI+7fhQ5O1gVNJ3SJ7W/uLJ3NrJsZhgnGadeatfXUHkzz5jznGBVCXcq7u3rVYyZ71PM0inThfmtqW0kaN1kjPzKcg1K/ivV1/wCW/wD44KyvNkWopAW+YU4zFKnGW6JWv5GYl+/Jq5F4o1Cyt1gguF2qMABQcVkMCaiMHILf/rq09QlTi1Yu3mqXuqSCa8m3si7QcAcVAkeTlufanRpjplf/AEL/AAFWMKv3VP1qmCioqyBcDtS5600tTS1Ax26mMxphY0AE0AGa1tK/49n/AN/+grMWLPWtXTdogb/e/oKCTq9Tu5/t0yx4GMptPQ81n2YZYl80kuM5JOa7+/0q1vo8TIN3Zh1rltR0O6s8vDmWIcgr1H1FcM6U4Ky2OqE4srhQw9RTSSh4qKOUgYPBqUHfxXMdBfiu47s/ZroYLfcfPf0+tU57UwSGOUblPQ9iKaqIQVmHyt37qexqzZ6il05sNR2rIOEkPRvSplBr3omMnZ2M2bSormYMUXOPlq1bWIt5xNMAWT7voKtXFpLaydyo6EVFPMot2MjhQerGpjVb0ZEoaXRJFqtvdJLbOw35+UMO/wBap3E6yARsv7xfunriuavrmCG4Ekd3G2GyEycmrLavbYimzhGI3H0/rXR7JtXRlGVnqbNtFbGV452XJXKBj1PtWXrssmkqJkRN8n3N3Q9uKhv9asbgboTumRvkDA8n2NULqWbUypuZdyIPlUj7ntV06TTuzWU+iM+3GeT35NWZrlbNQepPb1qlNfJbZVBuf9BVKMy3tyock5P5CupQursyUraHS2Nw4CSfdzzgV0sMqSKHBxkVywXYAB2FWYbpkUBTXHUjd6HZB2R0lKr4PNZltqAkTDHDD171ejlWQcdR1rBxaNC4JOMjrSeZuPzce9QD+8D+FSgK467T2z3qUM1PByeVLqCdvMUj3BBNYnxJm/0GLb/z3YZz0IzXSeGI9guTjqVH864HxxdyG5lticot1IwH4mvVpv8Ado86ovfZyckhCkZI3dRUP65705jv60AAcVaERn3pUOPalYUmOKYiQS4G3bx609ZC3f2AqH/CmA8nNLluO5OzEH5j1pFYBuOartI2AATToxI7hUVmJ9BT5RXJmm98V0HhzUJ5pPsxXegH3j/DXPx2M7y7HQx56l+MV1/hq2giRooyWb+JvX6VjXUeXzCMmmaLLQ6YAbqp7ip5zCiswjLdsZ6VBbGfDqqYUn5Sea4FSkdCmmQGmMM1PNaMP9YTu6k9KpyJKjKFbcrZwcc8Vp7FodyQqCO1IpaM/I7L9KVCQMOwJpQoznNZtW0ZRoW+qsFCXaean97uKttGtwvmWbKw/u9xWIRToZpIH3xMQf51K02Av7GB+YHPcU4B1+5CPqat2d1DqC7WUJMP1pz/ALt9pU5FNTGmVNkp6qtHlN/dFWCwzwKN57YqixlnHJ9qi9N6/wA61fHH/IOt/wDrt/7KapW7f6RF2HmD+dXvGy50+39ps/X5TXVh/gZhP40ccFOOD1qYg+TzTUUIOT1p0sgKYHakzZFG5XKMPxrOtJPJ1d1/56IK1ZRlW9xWPtxqEEv1FaR+Ezl8Rtk/ufwxSbuPfv8Azpgkyypt+TaAT6Gl7/7WOlYGhveGbPzrtrhx8sQ4+tdPM+B/Ks/QYPs+mKp+8eT9anu3YzAbflAznPeuGtLmnymb1Y2KWXezO3Y7V96gR47dwSuWanStti3dyQATUTx5XcvDKcgn1rppLlQy5EzyAuwOew9BWXcbLi8MVuzFwfm/uoPUmpnW7mG6e4S2hHUqMk/Ss2+u1EQt7FTHCSSf7z+5NbOV9CXoMu7pQhtLZ8xg5kkxzI3r9KLLnPNZ2/nANa9pHshHHPU0p2jGw6SvIkZfm/KgjDD0zTvX6U8Y2D1rnOomX37ikVfLfb/CeRTBI3C7Mt+lCRyM++RvYKO1TYZIwz0pR88i8ZORVq2sJZ+cbE/vGti1sYbcZVct3Y9a6qNCT1OapXUdC0vSlpBS16SOAKKKKYBRRRQAUUUUAFFFFABRRRQAUUUUAFFFFABSUtJQAUUUUgCuJ+Jt1ImlW9sitslk3OwHHHQfnXbUjKrjDKGHoaAPn7a39049cUyvdtS0qxv7GW1uol8lxzj5cY5zmvFtbtbay1We2srjz4EbCuP5e+KAKXWjgUwvimFiaYybPakkbAx1x3rQ0zQ9R1S3mfTYPM8kAtzjOewz3rKmguIWKTxyRtno6kUAKH3GpAMio4lqUcUAa/hXSDrOuQ27D9wp3zH/AGR2/E4Fe1xoI1CIAFXgAdhXE/DnSLq0tHvZo0T7TjaxOWKDpx2ruKAFooooAKKKKACoVtoVd3WNQ7tuY46nGM1NRQB5X400hdM1cSQjENyC4H909x9KwxPDBp955gzLIgSPIyAcjJ/LNdf4/vFllgtvLlRomJyy4BB7g55rhrtS+2NRuJOcCkBRY0ynMCpIOQR1B7U2kNDWphpxphoAMUUUuKAHLTqQU4UDFFOFNFOFACMKgcYqzioJRzQBHSUtJQSJT1plPWgY6pkbBBqGp4YJJj8owo6seAKTGWhyB71Ibbo87eXGPzNIkkNv8kJ8xwPvt0/CqVzLI0uXbcaQFi4v1VBDbrhR3NTWV3xtdlJ9BWT1pycHjik4jTOnUhlytJj86gsNyxBWbOeatd6yasylqSrxH70objFRb+MdqN1CkDRMBQwyKaj0/rVp3EQEYNHUVIRTMYNOwDQO1BHNB4NPxlc0ARmkp2M00jFADlfHB6U/NRYp6nIx3qRjg2Kd5lR80YpAOkZXTaRkVRlhAP7s59qtEetRPGc5WgLFQjHWmsvpUjcE7qZUgQlPwoCevFTFQeahdu3WtIksdlR92mmTsKYW7UBS3tWgmGTS4JpRGakCqOtMRGIyfpTwFT3NPwzdOlSJGB2zQAxFLCtTT4f3Df739BVRQAK0dPP7hv8Ae/oKAPXqKKKZJjajoNtd5kixFL6r0P1Fcve2NzYNi4jIXs68g/jXoFRyRpKhSRAynqCMg1z1MPGWxtCq4nn4kJ27ufQ02a2juU27gJB9xj/I10eoeGkbMlk2w9djdPw9K56W3lt5THMjI/oR/KuSUJQOhSjNGnp8lxb2hF/kxodo3DkVK9rb3cTG3ZSrdR/9aqBuWubM20zH5f8AVv6exrIkkuLOXcrGNx0YHrWdSlGesdGRZx3IdX8JlWL26H1xjisCfR7iNfmiIx3HNdraeJJFAS7iEi/3l4NXRqWlT8sQhP8AeWpjWq09GricIvY81+zXKYVIxnPVqclpPJlHk2DuFFdfqMen3D/KyjHdTisya3tIhuDua6I4htbEuBgHS0R+SW+verFrbCJiQuPpU886s+EXCjqe9NgfLNzWjqSa1KjFJkuc0L1pAQc0nQ5rI2J2RuoBHFXbC4YHaxx7moY8yKMelTQW8W7L7ifQUuRtFc6RrRvng/mKl3d+Plqk0wWH5Mlm4H1pyQOo8zzsseozUexE6nY6/wAMsGim2/3hXm/jc/8AE0m/6+JP516D4QZmgud2PvDkVwXjMf8AEwn3EY+0ycevJrsg7QSOSesmcmR3oIHbrUu0AZAyaZtyfQ1pcgbg4pMVJg4puOaYDGoihNxKEVJHPogyad5fmOPvBMgM+OBXc2/hyyh0+GeKbLlfmORihzUVqCTexhaPoFje2YnlnkDEkFRgYNbUekwfakih2jam1Sad9jFjdE2pkeLjJHQEelV7uKbzVkjk2HuD2NcsqrlszR09DURYbSQC/txMF6K3T8KsKdOFxJcwRJH5i8JyCDWdHdymFY74MT1Q+9LpyfaZpDMx3h8DPXFSrsUY9GTxQTursylfmzgnOfSrLMAinhdnYDtWlABjyZe/Tiq09qQx2DIz2FWnYuyWxkXMjy3BjH3mOTz0NXBbAJukclu5Yc5q1FarnOz5vccirsNluzuycdvSqTKbOXuIhE7SFeowvtVHzpdzeXgqK6q9gQxsqqSxzzXP28SpBJz1bAFZygm7sXMEL703GpRVaFVhYo+QwJJ5q3H8wrnnGxaYiFkbepwRW9azLf2+DxMg/OsQrU1pK1vcLIOx5rFgWXkaJW34Ur1zXIX/AIsuVunW3RAinGW6muu8Spm0W4iGFc4c1wN7YxzysUkEb+/3W/wrvw0IyV2Z1Zvoauk+K5pr62t7qBSskyDcjFSPmFeg+PJDFpdsw5In/wDZTXkmm2VzHrVl+6JAuI/mU5H3h3FerfEXjSbX/rv/AOymu1RitjDmd7nEG9kP8PSlS/JUrIv0qnupMdWpOnFlKpJM1Q2U/Cs2Vdsg/wBls1ZtbjdFh/vJ+oqCf/Xn6ZrBJp2N201cvp8wI9Wqxp6edPub+Dkn6VQt+Nsmeo6dq27GHyLUs/3pWJ/4CKymtTWOxqaZqawzPDMf3b8gj+GtTfbzDclxE344rk1+Us34CuV125drny1Yhfr3rNYZT1Mpzsz0+5nsxE0c93Gv93aeVNUG1aBMxWkbTsTnzJeefYV5zpNxIlz86l0712NnqEKgCGDLe/AqakJQ0QRnc1JTJIPOvGJbHyr6mqEq4zx1q+4eUGduWI4A/hFVGVpX9FzjNTFNaj3K1pbGWfzCBsH6mtS5nt7KLfcSbF9+tQ3lxDpdh5rDhBwPU1wt1c3Wp3DzSMSvYdgK6KdP2ru9glP2a03OjHimH7RwhKA9e+K2bC9hvYC0TA46iuV0zQ7ia2keKMzNwm1Rk5Ndl4U8IT6cGm1GUMzdIU6D6n/Ctp4WLWhnDESvqWbS3mnl/dp8o6nsK27XTIocF/nfr7CryIqKFQBQOwp1Onh4x1Yp1pSAAAcUtFFdBgFFFFMAooooAKKKKACiiigAooooAKKKKACiiigAooooAKSlpKAFooooASorq5htLd57mRY4kGSzHAFVdZ1ez0Wya7vpNqDgDux9BXjviTxNe+Ibn97+6tUP7uEHge59TSA1/FvjeXVA9lpbPDadGfOGk/wFYg8P6h/YkmryxGK2QApleXyeuPT3rb8FeGbmW6W9vtKaW1K/L5jbOf7wB616sUR4vLZFKkYK9RQB879aei17D4qi0LTdJuLm4s7UTSIVj/dKWZscYrhvB/hu51a/t7uaIrYxvuLEcPjsPXn+tMD0bwnpK6RosMWB5sg8yY/7R/w6Vj/EmSJNCWPynZ5JBghOFA9TjgV0Os6rbaLYNd3RbYOAqgnJ7D2ryXxH4jvtcmzKxigB+SAE7R7n1NAzFxitDQreyutWhi1CdYLbOXZj1A7fjWfV7RdP/tTVrey3bPNcAsfTqfxoA9t0+5srm1U6dNHJCnyDyyCBjtVuoLKzt7G2S3tIliiQYAUYqxQISiiigYtFFFACUUUUAUdW0u11a0NvdpkdVYdVPqK5rQ/BpsNcN5cvHNFGv7n13Z6ke1dnRigDntf8JadraM7L5F0RxPGMH8R3ryTXdGvNDu/s96oy2Sjr91x6ivfMVQ1fSbTWLFrS+iDoeh7qfUH1pBc+f6aa2vEvh670C9McwL27H91Ljhh/Q1iGgAFSCo1qRaQx4paQUtABTqbS0DHiopRTxSSDIoArUhpx6000EjgvGRThyKZG+G2noamIx+NADakaZ2jWNmOxeg7VHRQMmjcE4br2ptwuOeu6od2D1qbf5ibG6jofWkMhFKKTGKWmBtWU6YQbsmtHrzXMRMUIKnFblpcbohuPPaspRKjIs0UZzRWRY5etP3YpgOKXGad7Eji1FNFBNWpXAUikXg0tNNUIcw70w08HIxTSMUANpRSUtIZIORmmmhTinYzzSGRnrRTmHNNNSAxkVvvAGq80Sou4nAqaSTYh2rkjueg+tZ8shd8Dk/3j/QVSVxNkbufXj0poVmqZYsnLdakCY6VokTchWP2qTYB1607O2m4LdelUICew5pyxjqacqhelOzjtTEKoAFOHWm7qM80ALWhp/wDqG/3v6Cs8dK0NP/1Df739BSA9hoooqiQooooASoLm0gukKTxqw96sdaKmUVLcadtjlL/w9NDuktWMijnaev8A9esiRVdDDcpjHY9RXoVUb/TLa+XEqAN2cdRXNPD9Ym0a3SR5rdafJDl4fmWqe5l+8pFddqemXWngybfMhH8ajp9RXNX08UmeBn1Fc7TTtJGvKpaxZWEwzUM8m4c4CjuaozLLvb94wU9MHioGiL/ect9TVqKQcrJHuEkfbGMip4I23Z2nFVo4gvQYq7byFGx1FE/IpIaVZGb5SeelSwIZGC45JqTcDLuHTuKkt1CHep5J6VKYy9bxRjzFYFdi5yBnJ7VSWaSOfd6HtS3c53/J8uSefwoieKVWDjY7dTnrW8djF7kguWVxnnJzVr7a3sR2zWfLbvHwWUjqCDmgKVh3eYnXp3FJpjTO+8GSiW2uD6MM/lXC+Mwv22fcOly/P4muy8A/8e93/vL/ACNcZ4vZpLq+6YS6cf8AjxppWSM5fEzmS2cbBSjGckUZAHBpeGTIPNWSNb/IpFQO20qSD2XrSNkGrWl2rXF1GvzFi2QB6U0I3NKskFusxUmFeFDoAcnr9egrSeNWhwGdcdh0NOkDpNDbEbFUcg8Ux/muDHuLKmQNvOSPSueq9TemtBLRmcmNmAw2Mk8Cm3E0b3Hl4ATbgnOcn1p8WmXTuWVD83UVNLo85IaKMcdeaw5l0NS3pFqCizzkNt+6c9K0zJFu3iEY7nHWqVukiQokgyq/exU/mO2/a20g8CuqDjYhRTLTRxXUIET7XHSqElzNaS+XMMcevWp0fbOu3uPmFN1iSNbcGQfOudvvSmluhNWdiuupAbup9Oasw3bycFsIew71zb6grMNsD/QDir1vc3PDRxIF7hz/ACxWSbKaRq3NxGm1ePoe9VLe1G1mkC5Zj8v938aRbdXfzpZSzdQMYA/CrGSO2F9PWrciLGVfwTyXSrFGhiAw7Hr+FV7ZWS4eP+BB0PrVzUb65hu44IYMpIOWYcCnNCitvUklyckjGazq/BcpDMUYqTbijFcNyi60X27RZoDy2w49iOleYySNuYM3KnFep6UfkkFeX6zD5Or3cQH3ZG/nXZgpXujKorljRpP+JtZf9d0/9CFem/Ef/kEWv/Xf/wBlNeW6IrHV7Ht+/T/0IV6l8Rv+QRaf9d//AGU16UTBqx5xI+3anrTh6VVkfN4f7qfzqUSZG5uK0JJ95H3OtPLFxG/c8VT81W/h/WiKbgK3rke1Zyj1NIy6Gxp0bXEkUY/iIU/zrpb5fLiQKOg2isvwtb5klnYfKuFX6963LkLIm1q4KsrTsdtNe6YUsoUSe3OK5LUA0szvj+Kur1O3aCdZFBeEjBH+e9ZzW1u6b2lCkc7ZFIP8sVtTloY1I6mVpqMk3lk/fGa6axi2cmse3a1gQSuQ8u4gBRnAH+Of0rQtzf3YDRReQn/PRxk/gKVXUmEWzoFuorfb52WLfdhX7z/4D3NOskknfO0bySVReij0FUbO2WNv4nfuxGSa63RNORYUnkRhISThhjb9KxjF1HZbGjtTV3ucT4wSRvJtcNuJHb1J/wAKu6L4NvJ7eMXWbaHqRj52/Dt+Nd8bO3NyLholaZRgORyBU9d9KHIrHLOfM7lPTtNtdNtxDaRbF7nqW9yau0lLWhAUlLRQAUUUUAFFFFABRRRQAUUUUAFFFFABRRRQAUUUUAFFFFABRRRQAUlLSUAFFFFAHBeNPDGs6/rMb27xfZI4wE3vja3OePyq34c8B2em7bjUSLu5HQEfIv4d/wAa7OigBFUKMAUtFFAHGzeGrvWtX+366+23iciK1VsjaOmT79TXWwxxwRLFCioijAVRgAVLSUAYfjGJJ/CuoJISAsW/j2OR/KvEyQele4+Kba6vdAubSyTfNOAgBOBgkZJ/DNcxB8OrZLFUnmaWdjmSReMAfwqOnJ7mgDzeuq+H9ylvrSolg1zcS8LJuwIl7mtS0+H8t1etNeKLO23ALCjBnKj1PTJrt9P0TTNNkL2VpHE5XaWUckUAaNFFFAxaKKKQBRRRQIKKKKACiiigAooooAo6rpdrq1lJZ3kQeJx+Kn1B9a8P8RaFdaBqJtLgbkPzRyDo6/4179WZr2iWmuae9rdoOR8jjqh7EUDPAQKkAq9rmjXeh37Wl4pxnKP/AAuPUVRoGOopKWkIKKKKChwpTyKaKcKAK7jmmmMlc1M4y1SbcR00JlDoasxN5iYPUVA45NEbFTmhiJjTSae3I3DoajNIY005DSZozigZLwaacUitTjg0CAEip4Z2Q8Gq9FAG/byMwXcatVi2LsP4uPpWrFJuWsJKxomTA04Go80oNQUSU00oNBNMBPmX0I/WlI7gimlqTNNNiFzzTieKYaQnii4C5ozTc0maLgP3U4NxUQp4p3Admk6thQSx6CnxxvLu2JnaMk+gpDED1FIChPl3wTkD8qYEwa0Tbq3bFAtkFUmRYpBR2Gaa6sOvFaXkqvaoJYM9KpMLFHGacBipDEVphFWITNGaMUYpki0UUUxjgeK0NPP7hv8Ae/oKzAeK0dPP7hv97+gpAeyUUUVRIUUUUAFFFFABRRRQAlc3rPhO0vy01r/o0/X5R8rH3H+FdLRUygpbjjJx2PHtV0m901yt7Ayr0DjlW+hrMkgHDIO1e4TwRXERjnjWRG6qwyDXI6x4LRlMmlsFYD/VOeD9DXNOi1sdEaye55yQR98VJGwJGKuXtnLbTGC6heN/RhVQQlfu84rJ+ZummSrVi2Ry/wAuTjmoEB+XI+taOk3sVlqcbyrmFwUZc9jQlqEtirdRE4kB+7wfan2lszndJnb/AHgOlbmp2cEVyPKcGGbj6Gstp7rTJJLWTkA8rngj1q4mDL/2O1O1VKszDquf5VSvbVU4UFTnHIxzVvTdWihuRO1uh46Y71Lrd/FfnzIIwmfvY7GrTTRLuma/w9GLe+HpIv8AI1zHiS33SalJ1BuZD+TGuo+H3/Hvff8AXRf5Gqr2qX8upW+7BNzKM+nzGory5IpijrJnmKj1p6YXmurl8Ey7j5dypFJ/whU+xf8ASVznnIqPrVLuP2bOWb561vDy+Vebmb7vA/GtdPBUiv8ANdrjvhar3enR6ZNGke9mJzub/CqWJpt2TDkZsy26vG00rFiPU81ajgFpaB0Ubz1OO3pWQzu0O1zhgK3rMtd6av8AEuwcjqCODXPWl2NoKxTe63PtDFeOmansLphMI2OUPUGq5s83LMsYDnuetaVpaRqm+Xhv5VzR3NG9C1LFF5TbfTJrE+0RvjGVfOM1fufOkBjtCW7EnoBVQ6JcFeJEDdcHNdPM1sZ3JBOlvw3zOe9RzXEN5Bl2IWM9DVS6tpI3/wBKSTnuDxTUtkSMk58tucj+tTKcmxkvlWybW3MQ3Q0oCpOVbt6mnR+XnAdEQnPHb6CnLpdvccyN52OhHDUKTEx270x781HPeBPlAO4c4HWkjMNtLs8tMgcMRzU0cyk5VU9ye9N1UTZkcSm/bFwGhXHy89akmtliwol3BcYpTJHIywKY9uONnUVO5iaIbUIccHjrWVWq2hpFIrzRipSPamkVzXKLmnLhXNef67H5ms3UgXjzDXo0C+VaM/oCxrk9RSWeJtq8k54FdWFum2SzF0mDGqWh7+cn/oQr0T4j8aRa/wDXf/2U1x2kWTLqNu0naVTj8a6r4ott0K2x1Nxgf98mvWpXOeoeZBh1PVzuP9Ka7sWzyB2FOjTu3Pp7VHOyjj+I1sZki/Mmaa8n3Vj+aQ8ACmIpYbd3etrQNJ3azEX+eCIbyfcdB+dZzmoouEW2djo1uLHTYYWblRlv949allOWqNpV38c0nzO+2Jcsx7CvKd5O56MbRQ8qGXDAEHsaztR0+GSHbDGobPLA8AV0UGkzu2ZSEX36/lU3labby+WwNxN2jUbj+Q/rVxjLoRKpE5nT9GyU8m23n+83b8a6S20EsB574H91eP1rUtkmkGZYhFH/AAxjk/j2H0rQVcCumOHb1kc86z6FSz063tV/dRKPfqfzq5RS10xgo7HO23uFFFFWIKKKKACiiigAooooAKKKKACiiigAooooAKKKKACiiigAooooAKKKKACiiigApKWkoAWiiigAooooAKKKKQBRRRQAlGKWigBAKWiigBKKWigAooooAKKKKACiiigAooooAKKKKAEooooAyvEGh2uvac1rcqA3WOQdUb1FeKaxpN1ouotZ3aAMOVcdHXsRX0BWL4l8PWviDT/JnGyZcmKYDlD/AIUDPDQaU1PqWm3WlXz2l5EY5EP4MPUHuKr0hiinU0U6gYooOApPYUgpeKAEjBbk06bOzC09FAFP25FNEmcwx1ph71NOMNULUASxSfLsNDjBxUOcYNPL5HvSAd0pOtN39qA1AXHYpwpm6k3GgZNRxUOWoy1AF62fBJ/hHWteAYiUjowzWLaQLIMuT64rXgbaoUcgcCs5IcSyKcBTVBp4FZGoUZpDSgUAJRRiigAFBoFBoENooooASrENuxxJLlIux7sfQVLFbpCvmXWS3BSMd/8Ae9OKWWV5ZC8pBJAHAwBjjgUAG7CeUMiMtu2+/rSUlKKYBRS0UCEAp2BTc0BqtCI5Is54qs8Bq+OaUoDViMpoyO1M2kVpvEPSozCPSnzCKGDRtPpV4QCni3WlzBYztp9Kvaev7hv97+gpTbn04rQ021YwNtQkb+uPYVPMFj1SiiitiAooooAKKKKACiiigAooooAKKKKAKd/p1nqMRju4VkHY45H0NcVqvg+4tGaWwzPD12fxgf1r0GkrKVJSLjNxPG5IcMVcFWHUEYIqvKjAZ64r1jU9DsdSBaWILL2kUYP4+tcpqXhuazBYDzI/7yj+YrlnTlA6YVVIzNOuVvoorZ2AnHC5/iHb8anvYDcoWkX99CNrDviqDaeYpA8R2sDkYPStSO6ZnV5gPNA2sccSD396SqIHEyJYXRwAhGO2KSPevBBArpLcRyYVnAzwp459jUj6eqLxEGDHOQOlaRV1dGUpWepZ8B/8e958uDvXP5Gs/T5mj1/UVbobuRgPUbjW/wCGYo4Y7gIu3LAmuRupvs/iG6k7efID/wB9Gs8VrTCnrJnVSqA+V6dqZSW8omhUjsKdXhS3NxprM1SKPiaSNW2c1qtVa8i863ZDnkdhV05WYzlr114cEjjmodN1l7RyqnK5rQubXEZVTvUcAkZxWcbKIHpXoKSaHY038SDP+qXOPWr9jDdTAXF0T83KKeg/D1rnLeyT7XArcguM/nXczgeUmGPB6VVopXEysJpLTO6MFT79Krtq0iy8ABaL+dS2xR0FZ7jB+buM1i5u+hcYK2ps/are9jaJgAx6Z71mW7Kbc2zbcqzc9/ao4QpI/T2qeSG3iuI5fLw+wlueD2qoyb3JlFLYqC2kYfKqH3H+FPWJkH7whf8Ad4NMiLhcgbfYHNPDxsMTkkemaYhJBu+aNUaTsZGzTEadTi5gBVejqOlLLBbiJCrBcdCTzT445CpCsZFx36UgJUiEzrNEw+Q87hg1O/zPu249QKgtEkHLLtX+dW8d6wnJbARkelOt4TLKB2HWnbP/AB6riBbO3M8nbn61MItkNjriFiht0b7yZP8AQVjCPBIx07U7Qta/tK9vEP3gS0f4VoT24MhdPuvzXpU4cisJMzoLLN5DInBEik/nVn4of8gaz/6+f/ZTV+2gxLGf9oVS+KH/ACBrT/r4/wDZTXdS2MKm55g8gRSfyHrVZfm+ZvvUbvMcseg6U+PrWxmNXKtg/hXf+HLUx6Sskn35vmz7dq4qxtTfalBbKPvtgn0HevS1CxLsUbUQYA9AK4cU7aHXh1fUlsLSCSQvcELDGMkk4BNaH9p2kXyWUW8gdQMD86o21hPenagKx55Zun4Vv2OlwWQyo3v3Zv6VFKlJodScblOG0v775ruQxRkfcTjNaVpZW9ouIIlXPU9z+NWgKK7I01E5ZTbFooorQkKKKKACiiigAooooAKKKKACiiigAooooAKKKKACiiigAooooAKKKKACiiigAooooAKKKKACiiigAooopAFFFFABRRRQAUUUUAFFFFABRRRQAUUUUAFFFFABRRRQAUUUUAFFFFABRRRQAUUUUAJRS0UAYfibw7beILAwSgJMozFKByh/w9q8X1XT7rRr57O9jKyL0PZh2I9q+hKw/E/hy18Q2BhnASZR+6mA5Q/4UDPCxKKQzelS6rpt3pN+9peRlZUOPZh2I9qqUCuPMpzUiyZFV6lhGetAXJhKy0jXDetNkGKjI4oAGbPJpmadimkUAJRRRQMCaUUYp6rQABc0pjNPA21KjA9aQFfY1Ohh3y+w65OKtbQRTDFQBejWGO18wSKq9+Opq9o1leaqlxcWW3y7UjdGOXYHvj0FYMjMww3QDA9BUun3t3pt4l3YytHMnQg9fYjuKVrhexviirV5eLqMiXP2ZbeZ0HnIp4L9yPTPFViKwkrM1Q0mlVsUYpCKQyUEGjZnpUY4pwfFAw8ul20eZUkatKcIrM2M4AzQIjCU9U2nNL0paAA80UUUgClFNp1AC7qTdSGo2NMBzPSB6iJoBrRElhXqRXqoGpwencC0zCmE0zdmkzTuSOPHSgP603NNb2pDLMKvNKkcQ3O5Cge5r0rTdPWwsY7ZMNtHzN/ePc15/wCGI/M8QWg27sMWx6YBr0+moksdRRRWpIUUUUAFFFFABRRRQAUUUUAFFFFABRRRQAYpCMjBGRS0UAY2paDb3QLQjypPUdD+Fczc6fNas0dzEAOzdQfoa7+o5I0kUq6hgexFc1TDp7GsKrjueZMrI58pvwq7a6w0YEc2R7Hoa3dQ8NjmWxbHcxn+hrnbmxmilMckRB9COa50pwOhOFRHW+Hp47iKYxgcMAcVwmttt1W+/wCu8n/oRrr/AAYmyC6B7uMflXB+IJs67fDsLmQf+PGtZe9AyguWbNzw5qm5BDKfnX9RXSHDAMvQ15fFK8UiyRthl5FdnousR3CBWOHAwQa8vEYe3vI2ubeaCdtNzuGVppbH3q4rDIbq1WVPl4PXFYVzC8DncPxro9+4/LzUU0KTKQ6jNbQm1uNHIS3QikVweUYE12NtcR3kCOH5xzXOX/h/c5ltzhu6no1RWks9n8hDBR1HcV2KUWtBM250BkYFT14NV/Jbdt/WnwapbOuyYn6nrTjdRA4jm+XtkZrJwa2KT0FjtdvzN8vfJqCeUTXJXPVaJ5pGChSZP0qGSL+98sg/OiKa3B6jXXI288njnBxRFbYfsPrzWen2qXVl8/zGhPykjrwOK2obEh9wyK0k1FbkkMkEeFHz7s9x29q0LZCseNu3jp61MIFHzdTjFOAxXPKr2Aj28Zxil25qRY2Y/d61ZxDapunOW7IOppQg5MlysNhhSCMzXBAA5we/0qpcyvcszONsa8KhH61M9teX9zE0ymOEsNqe3vTZGZw7SfeLHj2zx+lelRw/Krsy5rnCh20bxMs6cRu2fbB616GgV1wpyD86fQ1xfiuz8yETKfmQ56dq2vDN/wDa9HhcnL2x2N/u1sxnW2ltyG7D9awviMm7SLb/AK7/APsprpbJswj2rl/iVcLBpFmWHDXGM+nymumnsYS3PLLq2aKYrj5W5BqJvk+X8612jku8RxQvLI/+rVBkk11Og/Doyok+tsYx18lD8zf7x7fQVpckzvAmmy3DvcJH8qnCkjv3Oa9GtdHiXDz4kb07Vcs7K3sbdYLOFIol4CIMCrFZezTldl+0aVkIiKihUUAe1OxRRWpAUUUUAFFFFABRRRQAUUUUAFFFFABRRRQAUUUUAFFFFABRRRQAUUUUAFFFFABRRRQAUUUUAFFFFABRRRQAUUUUAFFFFIAooooAKKKKACiiigAooooAKKKKACiiigAooooAKKKKACiiigAooooAKKKKACiiigAooooAKKKKAOe8WeGbbxFY7W/d3UQ/dS+h9D7V4tdabNZ3DwXKNHLGdrLjvX0TXMeMPDMetWpntwEvYhwf+eg/un+lAHjTWuKcsW1elW5opIJnhnRlkU4ZW4INN28UCK0i5jxUWz5RVll5x2qMKST6UAV2XFM6GppOn0qEmgYsz75C+0AHsKj5paekbNQA0GpUphRgaeoYUxj6SgGlpASJJjg1OuDVTNPRyPpQBO6CmRny5Aw609HVhg0jAZ4oEXhqhjQ74sntg1bjuI54kkjfIxyB2PoaxGBZafBKYV2fjWcolxkbW+kMgrL+1E0n2g+tRYu5qGam+etZZmc9Kksre61K7jtbSNnlc4AH8z7UrBc07NZb65S3txvkc8DsPc+1epaDokGk2+OJJ2++/wDQe1VvD/hW00rTHgnRZ5pxiZ2Gc+30rT0+ylsUaH7S81v/AMs1flkHpnuPrWsYIhsZf6Np+oD/AEi3BYfxLwfzFYtz4Lt2ybW6kjPowBH+NdZ2oqnBMVzzu78K6pb5MaLOoGf3bc/kayZ7ea2bZcRPG3owxXrNRywQzDEsSOP9oZqXTQ1I8l4or0DUfCOl3uWRHtpD/FCcD8ulcxqPgLUYstp+oecvZJBtP59Kh02UpIxmI9ahc+9Je6DqllzeJMg/vBcj8xVD7M38M2fxqeWw7lwsvrSbk9ap/Z5O8n6Uv2du8v6VdhXLXmA9DSeYB1YVW8jHSYflR5Ges3/jtFgLQnA704Tj1FUWtj/z2oFsO8x/A0xFz7Qg/iH50faYj/GPzqmbVD/y0Y0w2sXYkmgLndeAYBPqE91kFYo9v4k/4A/nXf1xXw7068s7aad/kt5uUQ9WP976V2tXEhjqKKKoQUUUUAFFFFABRRRQAUUUUAFFFFABRRRQAUUUUAFJS0UgEqC5s4LpNs0Yb39KsUUNJ7gm1sUbCwWyMu1iyuQRnqK8j1z/AJD2of8AX1L/AOhGvajXi2t/8h7UP+vqX/0I1jNJI2pu7KP8qdDM9vIJIyQRSEN2oEbHtxXO0mbHWaPryuqpcHaTxmuijeKZc5B9xXmKZbcnQjlT71astburFwpJZB61y1cKnrEXMeiPAR8ygbfaoyp/vGsXT/FFrNxK3ltjjPrWzDfQTKCHVh9a4ZUpR3RSkIQ/bBqNoBLxJEhFWh5TcqRS7QejCl7yKuZjaZbMfuFfoaRLCANtV3B962FgfqBkfUUx4yrZC4+tPmkFykliqnIZzT/syA5AJNWVDbskjFDIpOd2KLyYXK4iUdgKWpMRjqc1HLdWsP3mUfjQk2K45QT7CnEInLNWJf8AimztwVTDsPSuav8AxHeXZKxHy1Pp1rpp4WTIczr9Q8RW9gpWAh5O3tUng27Gq3tzNdDdKmCvoM154pLEs5LMepNdR4LumtNQkKjO8YH1r0KNBQdzKTuei38ipbt/ePyg/X/61YEzqCT1YVenuGmkBJ3Knyj0J7n+lZ1zyTx+OK2nLoggupQvUW5hZCMgj1rnvC1ybDWZrCU4STK4/lXSN/un8q5nXrdrS8hvY+MMMmsW7lnoek3LKPLY5YHBpvizw+fEdpa25n8lIpvMcgZJGCMD86p6bcrO1rcIfllUA/WurHSt6LurGM1qZuj6JYaPAIrOEAgYLnlm+prTpKWtyAooooAKKKKQBRRRTAKKKKACiiigAooooAKKKKACiiigAooooAKKKKACiiigAooooAKKKKACiiigAooooAKKKKACiiigAooooAKKKKQBRRRQAUUUUAFFFFABRRRQAUUUUAFFFFABRRRQAUUUUAFFFFABRRRQAUUUUAFFFFABRRRQAUUUUAFFFFAHNeKvCsGtR+fDiK9QfK/Z/Zv8a8uv7O40+5a1u4mjlU8g/wAx6ivdayPEGgWet2vl3A2SID5cq9VP9R7UAeLSKPWosY+lbGt6Ne6LdeRdplD9yQfdce3v7VkFqAKsxBPFQ7M1YZPmpCuBQBCI+al3eUOKhcsDSMxYc0ASm5f0X8qkilL/AHlWqlOjbDUAX9i/3acI19KWM7kBp4oGN8pP7tHlL6VJRQAwRqOgo2D0qTFGKAGbOOlNe3ZmGBTy+2nrMpIyaAHJp74pWsdoyWAq1FPGvyqT+Pf3qCWQyt/s1m43ZaZXaEL3zXp/gODRY7Atp777sgeeZOHHtj0rzbbSgOhBR2U+q5FPlsTJnu3X6Vg+Ib+80d4tQiVprXOyeIkAKOzD3rz3Tdf1TT3BgvGZRxskJZT+FT6n4m1TU7Y2906CIkEqi4zVIk6bW/F9vJYI+k3MiXSOG2NEcMO4PatLw/4qtNWjWKUiC77xseG+h715ktIVAYOhIYcgjsaoZ7fRWF4U1sazpoZyv2iHCyKD7cN+NbtAC0UUUAIVBHIBHese88MaPeEl7RI2P8Ufyn9K2aSlYDzzWPA93Dl9LmE6f8834cfQ9D+lcdJ50MrRTKyOhwysMEV7pXD/ABE0lGtY9SiVEeM7ZTnG4Hp9TUtDTOB3UbjWhomg3+tSFbZQka/ekfoPb612OneAraLe19IZTswAvAB9aVirnn2fenAMe1d9b+A7ZrkvLI6wj7secsfcn+lT33h/TrLZ5VqCjNtPVpJD6KP60+UVzgUgY/N2Fdp4a8IA7LzVI8DqkPr7t/hW1pXh63guReTwQrJ/yziUZWP8e5966ADAp2FcaAAoVRgDpilpaSmiR1FFFMAooooAKKKKACiiigAooooAKKKKACiiigAooooAKKKKACiiigArz2/8F6ldandXEb2ypLM8i5c5wWJ54r0KiplFPcak1seb/wDCCat/z2tP++2/+Jpv/CC6v2mtP+/jf/E16VRUeyiX7Vnmf/CBaxnImtP++2/+Jpk3w+1d2yk1oM9cyN1/75r0+ij2URc7PKW+HWt9p7H/AL+N/wDE0+LwJ4kh/wBVeWi/SVv/AImvU6Sn7KLDnZ59b+GvFcIANzYuB6yN/wDE1eg0fxKv+saxP0lb/wCJrtKKzeGpvoHtGcoml653+x/9/G/+JqT+ytZ/6dP+/jf4V09FT9Tpdg9rI5dtK1rsLT/vtv8ACq8uk+IP4BZfjI3/AMTXYUU1hKS6B7WR59c+HPFk2dk1gg9pW/8Aiayp/AfimcnzL2zOe3mt/wDE16tRWkaMI7InmZ5Qvw41sdZrE/8AbRv/AImpB8O9aH/LWy/7+N/8TXqdFXyILs8vX4fayP8AlpZ/9/W/+JrU0vwnqtgZT5lqWcbVIdvlHc9OvpXeUUcqC5jLpcyRhQUO0YAz/wDWqu+kXj94fzP+FdBS0nTTGptHLnQr5m+/AP8AgR/wqnqHhW9vLaSIyQZYcEueP0rtKKXsoj52cnoPh/UdPsRBdSQNtcMhVicYP0rq6WiqjBR2JbuFFFFMQUUUUAFFFFABRRRTAKKKKACiiigAooooAKKKKACiiigAooooAKKKKACiiigAooooAKKKKACiiigAooooAKKKKACiiigAooooAKKKKACiiigAooooAKKKKACiiigAooooAKKKKACiiigAooooAKKKKACiiigAooooAKKKKACiiigAooooAKKKKACiiigCnqOnWupWj213EskbdiOh9R7157d/DnUPtT/ZLi3MGfk8wkNj3wK9OooA8pPw41k9JrL/AL+N/wDE1F/wrbXNx/fWOPeRv/ia9booA8hf4Z643Saw/wC/rf8AxNM/4Vjr/wDz2sP+/rf/ABNew0UAePf8Kx1//nrYf9/W/wDiaP8AhWGv/wDPaw/7+t/8TXsNFKwHlEHw41yNcNNYn6SN/wDE1L/wr3Wf+ell/wB/G/8Aia9SopgeW/8ACvda/wCetn/38b/4mj/hXutf89bP/v43/wATXqVFAHl//CvtZ/562X/fxv8A4mj/AIV9rP8Az1sv+/jf/E16hRQB5Y3w61k/8tbL/v43/wATTP8AhXOtf89rL/v43/xNerUUAeWr8PdaH/LWy/7+N/8AE08fD/Wv+etl/wB/G/8Aia9PopWHc8zHgHWf+etl/wB/G/8AiaP+EC1j/ntZ/wDfxv8A4mvTKKLCPNf+ED1j/ntaf9/G/wDiaP8AhBNW/wCelp/323/xNelUUWGeaf8ACB6x/wA9rT/vtv8A4mnf8IJq/wDz2tP++2/+Jr0mimI4LRPC+u6RqSXEU9qIiQJVDk717j7td5S0UAIBS0UUAFFFFACVk3ujjUb6KW/bfbwnMcA+6T6t61r0UARwwxQRiOGNY0HRVGBT6WilYBKrQ25Ri8zb5D0bH3R6D0q1RTASloopAFFFFABRRRTAKKKKACiiigAooooAKKKKACiiigAooooAKKKKACiiigAooooAKKKKACiiigAooooAKKKKACiiigAooooAKKKKACiiigAooooAKKKKACiiigAooooAKKKKACiiigAooooAKKKKACiiigAooooAKKKKACiiigAooooAKKKKACiiigAooooAKKKKACiiigAooooAKKKKACiiigAooooAKKKKACiiigAooooAKKKKACiiigAooooAKKKKACiiigAooooAKKKKACiiigAooooAKKKKACiiigAoophdV+8QPqaAH0UwSIejr+dODA9CPzoAWiq8F9bXE0sME8cksJAlRWBKE9j6UyO+tZrqW2huYnuIvvxBhuX6igC3RVeS6hinjgkmjWWXOxGYBmx1wO9NbULJGKtd24YdVMgyKALVFV4ry2mbbDcQyNjOFcE0+KeOZd0UiuucZU5GaAJaKbn3pc0ALRVWfUbS3vILOa4RLi4z5UZPL464q1QAUVW+1QeU8vnJsjzvIYELjrn6U+0uYLy2S4tZVlhcZV1OQaAJqKKKACiiigAooooAKKKKACiiigAooooAKKKKACiiigAooooAKKKKACiiigAooooAKKKKACiiigAooooAKKKKQBRRRQAUUUUwCiiigAooooAKKKKACiiigAooooAKKKKACiiigAooooAKKKKACiiigAooooAKKKKACiiigAooooAKKKKACiiigAooooAKKKKACiiigAooooAKKKKACiiigAooooAKKKKACiiigAooooAKKKKACiiigAooooAKKKKACiiigAooooAKKKKACiiigAooooAKKKKACiiigAooooAKKKKACiiigAooooAKKKKACiiigAooooAKKKKACiiigAooooAKKKKACiiigAooooAKKKKACiiigAooooAK4fx/p+i3On3d7O8R1KCDbGPPww5z93PPX0ruK89+I1vocFnM32SJ9Xu2VYyCS/bnH04oAzZfD/hZfBZvVMP2/wCyB/8Aj6Od+P7ufXtitfwppdjF4ZD6LdxW+rXdqpkfzd5UjnO3PH5UuqeE9Hs/Bk0zafF9ritdxk5zvxyevrUmgWWlaN4Lh15bWOO5FjueUZyxI/qcUAcrol3OJ5dWk8SwQXkzfvoRFmSQKemAOpxSRT6m2lal4sstVNq89xseBUyTyNoz9DVnTI7GCHwqjGD7Sblpp+m5V6jd3xj1qvqF5pzeKpIobo/2FJdxzzsseUDgdM+hoA6O9awl1LQtN1e4um1aLZItzGoG8nJxn0z1rKvbWJ9QnMmi6AzmRixfUQrZzzkbuDWp471KCDUfDmoQ4niSYyKI8HeOMYrBl0nUbi31sjw7E/n3UjJdzyJG0QLZGNxHH+NAGnoNqmn+NcQ2KRs2lmRoLd9ysxI4Uk85+tZuqnS5vC87WMF1blr+MTWkpOImwchfrzW3ocsZ8fQ7ZI3+z6QqyFGDBSNuRkcVkatqN1qfhOfUbqT9xLqo8gbQNqD3Ayfx9KAOtT4feF2RT/Z7ZI/57yf/ABVZvi9NI0LTLO3/ALJup4IlYRFJ3RI8n+Jgc9T3rqE8QaLtQDVrI4H/AD2X/GsXxs8WreFmj064t5XlkVo8Tou4K3OCTjigDzs2VhPPbStqsqBg3m7IZiIsj5QmQSR65NdH4QvrEarsTS7maW2BLXcM0xjAweWRzxkA9agT7cBjzNW/DXLetnwDBLa6vqkt7JtN15flCa8jmkcjdnJU89fSgDF1K4t59G1W50E3aWE9yv26NgF8pT12L7nr+FGm2FlNcR2McniixLRPJCZ5RGhCjPA29PpS3V15z+K9JtYJp7m4uPMXYuRhSP1qfT7KWw1iG7urH+zooLSUSedfLKSSnGFLZH0xQB0Xga+lj8CpeXBnuXjMrEZLO2GPHNb+iamNX0yK9FvLbiTPySjBFc/4GlNn4BhuXikbYJZNijJYb2IxXQaJqQ1fTIr0W8sHmZHlyjDDBoA0K5fUvGtrZ381pa2F7fNbf8fD28RZYvqa6ivO7K+n8J6lq8F5pd7cLeTmeB4Y96vnsTQBN4z1pJ9B0bUrK5njhlvFLFSVYrg5BA+nStjTfFttqGrDTXsb2zlcFojcxbN4HcA1j+LGvNR0PRJpdOeB2vUZoV+YoMHrgcVb1yOVviJoLrG5RY33MFOBwepoAual4ztrO/ls7bT76/kt/wDXtbR7lj+pqa58WWMXhv8At2BXnt8qpVeGUk4IPuK56wv5/COparbXml3twl1ctPDLBHuD57E1n3+m3Vh8NNQe9jaGW7vBcCE/8swWGB+lAHUW3jeynvre3lsr21iuiFgnmiKpIT0xT9T8Yw2V/PZ22m31/JbY85raMsseRnk1zmoXV34jGj6Vb6Td281tLHLLJIgCIoHUHuKm8RSWdrrk8q2ev2V24A+0WOCkx7ZGcUAXvFviS4j8JLeadBeQPcHbvaIqYf8Aez0z0BpJdWS6g8Py3kWp2kslyI0QNs3kY5cEfMpqrqA1zU/hrONThke8LjaNuHZAwwSo70X10dUHhS4gtLlFivAjrLHgjAUZPXj3oA29V8YW9hfy2VrYXuoTQDM4toywiHuax/GGti/8O6Tf6bPNFHNfojYJRhw2VNMiu5vCXiHV3vdNu7mC/kEkElum8Hr8p5461F4za81nwpprS6dJayPer+6A3Mq4YbiAOKAOqtPEMF7rE9haRSTR2y/v7oEeWjf3c9z9KzE8dwSvvttH1Se03bRcxwEoeccVX0G1l8Ma5PopWWewu0823cr/ABgfMpPTn3rnrm4NjJKnh628RafebyUtdgeEnPoc/wBaAPVI5PNjV1DLkZAYYP4ipOaqac1y1hbteqq3JiUyhegbHNWqAFooooAKKKKACiiigAooooAKKKKACiiigAooooAKKKKQBRRRTAKKKKACiiigAooooAKKKKACiiigAooooAKKKKACiiigAooooAKKKKACiiigAooooAKKKKACiiigAooooAKKKKACiiigAooooAKKKKACiiigAooooAKKKKACiiigAooooAKKKKACiiigAooooAKKKKACiiigAooooAKKKKACiiigAooooAKKKKACiiigAooooAKKKKACiiigAooooAKKKKACiiigAooooAKKKKACiiigAooooAKKKKACiiigAooooAKKKKACiiigAooooAKKKKACiiigArNl0jTptSTUZbSNrqM7VkI5H/16KKALV5aw3trJaXKb4ZlKuuSMiok0uyj01dNWEfYxH5flEkjb6ZPNFFAFf/hH9HW9a/GnwfaGG0uVzx06dOlOTQ9Li0w6aljD9kY4aLbwff6+9FFAEv8AZ1l+4zaxH7GP3GV/1fGOKkvLSC+s5LW6TfDKpV1yRkUUUAZ+keHNH0qOQWNjHH56Yk3EvuHp8xPHtVk6NpjWKWLWNu1qhysRQbQfpRRQBW/4Rbw//wBAay/79CnS+GdCmhjik0u2McQOxdmAuTk4x70UUARf8Id4c/6A9r/3zU1r4Z0SxuEubTTYIpk+66ryKKKAL9rY2lpJNJbW8cTztukZRgsfU1mal4W0TWLkXmo2ImnChQ3mOvA9gQKKKANWGCKCNYYI1jjRdqoowAKmHAoooAKKKKACiiigArA8Z2cd94elt5WdUaROUOD96iigDXsBixgA7Rr/ACqxRRQAUUUUAFFFFABRRRQAUUUUAFFFFABRRRQAUUUUAFFFFABRRRQAUUUUAFFFFABRRRQB/9m4Svc/AAAAAMcgGVBr7eRiMkih6H1ZQ0E=;" vertex="1" parent="1">
          <mxGeometry x="11" y="50" width="804.74" height="350" as="geometry" />
        </mxCell>
      </root>
    </mxGraphModel>
  </diagram>
</mxfile>
